<svg width="25" height="25" fill="none" xmlns="http://www.w3.org/2000/svg"><path d="M18.017 13.043c-.01-1.598.715-2.803 2.178-3.691-.818-1.172-2.056-1.817-3.687-1.94-1.545-.123-3.235.9-3.853.9-.654 0-2.15-.859-3.326-.859C6.9 7.491 4.32 9.39 4.32 13.252c0 1.141.209 2.32.626 3.534.558 1.599 2.569 5.515 4.667 5.452 1.096-.026 1.872-.778 3.3-.778 1.385 0 2.102.778 3.325.778 2.117-.03 3.935-3.59 4.465-5.194-2.838-1.338-2.686-3.919-2.686-4Zm-2.463-7.148c1.188-1.411 1.08-2.695 1.045-3.157-1.05.06-2.264.715-2.955 1.519-.762.862-1.21 1.928-1.114 3.13 1.135.088 2.17-.496 3.024-1.492Z" fill="#000"/></svg>