<svg width="20" height="20" fill="none" xmlns="http://www.w3.org/2000/svg"><path fill-rule="evenodd" clip-rule="evenodd" d="M8.243 7.275h-.037a.328.328 0 0 1-.28-.32c-.01-.15-.091-3.667 1.893-4.466.498-.198.96-.16 1.35.131.48.348.824 1.044 1.032 2.06.145.714.172 1.335.172 1.363a.216.216 0 0 1-.263.235.326.326 0 0 1-.28-.31c-.028-.64-.236-2.398-.924-2.906-.218-.16-.49-.178-.816-.047-1.702.687-1.62 3.987-1.62 4.025 0 .131-.09.235-.226.235Z" fill="#595961"/><path opacity=".46" fill-rule="evenodd" clip-rule="evenodd" d="M11.069 2.64c-.363-.264-.788-.302-1.25-.123-.806.33-1.377 1.194-1.658 2.51-.208.969-.18 1.843-.18 1.88 0 .048.017.095.054.133.035.037.072.065.117.065h.027a.146.146 0 0 0 .145-.15c0-.038-.081-3.394 1.667-4.1.353-.14.66-.122.915.066.733.536.95 2.351.978 3 0 .094.082.188.181.197.09.01.163-.056.163-.15-.009-.113-.108-2.558-1.16-3.329Z" fill="#B2B2C2"/><path opacity=".46" fill-rule="evenodd" clip-rule="evenodd" d="M8.161 6.993h-.018c-.054-.01-.1-.066-.109-.123 0-.037-.027-.893.182-1.861.27-1.288.842-2.144 1.63-2.464.444-.178.842-.14 1.187.104 1.014.742 1.114 3.15 1.114 3.253a.083.083 0 0 1-.1.085c-.055-.01-.1-.057-.109-.123 0-.028-.1-2.388-1.014-3.065-.272-.197-.607-.226-.987-.075-1.776.743-1.694 4.146-1.694 4.184.008.047-.027.085-.082.085Z" fill="#B2B2C2"/><path opacity=".62" fill-rule="evenodd" clip-rule="evenodd" d="M8.895 4.303c.072-.14.145-.282.208-.432-.027.047-.208.536-.76.46-.01 0 .325.104.552-.028Zm-.2.602c.055-.15.109-.31.146-.46-.018.056-.11.564-.69.564 0 0 .336.065.544-.104Zm3.18-1.213c-.073-.169-.154-.329-.236-.498.027.056.3.592-.009.978 0 0 .236-.188.245-.48Zm-.498-.846a6.818 6.818 0 0 0-.435-.338c.054.047.535.394.507.921-.009 0 .073-.31-.072-.583Zm-2.22.94c.11-.113.2-.235.299-.367-.036.038-.335.424-.87.282 0 0 .309.17.571.085Zm.336-.432a5.65 5.65 0 0 0 .362-.292c-.045.028-.416.339-.933.113 0 0 .299.216.57.179Zm.489-.311c.153-.047.299-.103.443-.16-.054.02-.516.189-.969-.169.01 0 .245.282.526.33Zm.444-.169c.126.02.253.029.38.038-.045-.01-.444-.038-.67-.414 0 0 .09.254.29.376Zm.524.206c.091.104.191.208.3.302-.036-.038-.344-.348-.272-.734a.546.546 0 0 0-.027.433Z" fill="#595961"/><path opacity=".74" fill-rule="evenodd" clip-rule="evenodd" d="M12.047 5.855c0-.104-.1-2.483-1.087-3.206a1.016 1.016 0 0 0-.616-.207c-.163 0-.335.037-.516.112-.788.31-1.341 1.148-1.612 2.426-.209.96-.182 1.815-.182 1.853 0 .028.028.056.055.056h.008c.028 0 .046-.019.046-.047 0-.038-.09-3.47 1.73-4.203.399-.16.743-.132 1.033.085.941.686 1.041 3.084 1.041 3.112 0 .028.028.056.055.056h.008c.019.01.037-.01.037-.037Z" fill="url(#a)"/><path fill-rule="evenodd" clip-rule="evenodd" d="M12.201 4.68c-.208-1.016-.553-1.702-1.032-2.06a1.287 1.287 0 0 0-.852-.253c.245.018.47.103.68.253.48.348.824 1.044 1.032 2.06.145.714.172 1.335.172 1.363 0 .113-.054.197-.145.226a.1.1 0 0 0 .046.009c.153.019.27-.085.262-.235.009-.028-.018-.64-.163-1.363Z" fill="url(#b)"/><path fill-rule="evenodd" clip-rule="evenodd" d="M9.919 3.015c-1.703.687-1.622 3.987-1.622 4.025 0 .112-.054.197-.145.225.018.01.027.01.046.01h.035c.136 0 .227-.104.227-.235 0-.038-.081-3.329 1.621-4.015.118-.047.227-.075.327-.085-.146-.028-.308 0-.49.075Z" fill="url(#c)"/><path fill-rule="evenodd" clip-rule="evenodd" d="M12.5 3.833 4.819 6.297s-.326.094-.408.197c-.081.104-.1.395-.1.395l-1.186 9.497 8.913 1.73.688-14.292a.507.507 0 0 0-.226.01Z" fill="url(#d)"/><path fill-rule="evenodd" clip-rule="evenodd" d="M15.154 5.056s-.01-.076-.054-.104c-.037-.028-.082-.028-.082-.028l-1.26-.094-.923-.95a.28.28 0 0 0-.118-.056l-.688 14.292 4.828-1.082-1.703-11.978Z" fill="url(#e)"/><path fill-rule="evenodd" clip-rule="evenodd" d="M9.33 11.769a3.47 3.47 0 0 0-.462-.508 3.814 3.814 0 0 0-.508-.385 3.274 3.274 0 0 1-.317-.226 1.67 1.67 0 0 1-.217-.216.897.897 0 0 1-.127-.217.653.653 0 0 1-.036-.225c0-.104.027-.207.064-.292.035-.084.1-.16.162-.225a.768.768 0 0 1 .254-.15c.1-.038.217-.057.344-.067.136-.009.272 0 .399.01a2.37 2.37 0 0 1 .67.17c.09.037.18.074.245.112l.597-1.843a1.4 1.4 0 0 0-.317-.122 2.524 2.524 0 0 0-.416-.085 4.048 4.048 0 0 0-1.033.01c-.407.056-.77.169-1.096.338a2.8 2.8 0 0 0-.806.62 2.83 2.83 0 0 0-.516.847c-.118.31-.19.658-.208 1.034-.01.226.008.433.063.62.045.189.118.367.217.537.09.169.209.32.335.46.127.141.28.273.435.395.127.094.235.188.326.273a1.184 1.184 0 0 1 .335.526.68.68 0 0 1 .028.273.62.62 0 0 1-.064.263.555.555 0 0 1-.154.207.503.503 0 0 1-.236.113.877.877 0 0 1-.317.01 1.485 1.485 0 0 1-.398-.114 2.706 2.706 0 0 1-.371-.178 3.287 3.287 0 0 1-.317-.207c-.1-.066-.182-.141-.245-.197l-.408 1.4c.064.095.154.18.254.264.1.085.217.17.353.254.136.075.281.15.435.216.154.066.326.122.498.17h.037c.37.084.724.103 1.06.056.344-.047.66-.17.932-.358.28-.197.508-.46.68-.808.172-.348.271-.771.29-1.25a2.291 2.291 0 0 0-.11-.81 2.33 2.33 0 0 0-.334-.695Z" fill="url(#f)"/><path opacity=".227" fill-rule="evenodd" clip-rule="evenodd" d="M5.294 14.807a.975.975 0 0 1-.059-.076l.408-1.401.018.016c.06.054.136.121.226.181a3.254 3.254 0 0 0 .689.386c.127.056.263.094.398.112a.88.88 0 0 0 .317-.009.504.504 0 0 0 .236-.113.556.556 0 0 0 .154-.207.62.62 0 0 0 .063-.263.68.68 0 0 0-.027-.273.973.973 0 0 0-.118-.263 1.11 1.11 0 0 0-.204-.25c.045.05.082.101.114.156.054.085.09.17.117.263.028.085.037.18.028.273a.63.63 0 0 1-.063.263.561.561 0 0 1-.154.207.509.509 0 0 1-.236.113.878.878 0 0 1-.317.01 1.482 1.482 0 0 1-.399-.113 2.74 2.74 0 0 1-.371-.179 3.198 3.198 0 0 1-.317-.207 1.917 1.917 0 0 1-.227-.181l-.018-.016-.407 1.4c.04.06.092.117.149.171Zm1.335-2.832a2.645 2.645 0 0 1-.434-.563 1.95 1.95 0 0 1-.217-.536 1.942 1.942 0 0 1-.063-.62c.018-.377.09-.725.208-1.035.127-.32.3-.602.516-.846.227-.254.498-.461.806-.62.327-.17.689-.283 1.096-.34a4.036 4.036 0 0 1 1.033-.01c.154.02.29.048.417.086.117.028.226.075.317.122l-.014.044a1.287 1.287 0 0 0-.213-.072 2.535 2.535 0 0 0-.416-.085 4.048 4.048 0 0 0-1.033.01c-.407.056-.77.169-1.096.338a2.81 2.81 0 0 0-.806.62 2.81 2.81 0 0 0-.516.847c-.118.31-.19.658-.208 1.034-.01.226.008.433.063.62.045.189.118.367.217.537a2.356 2.356 0 0 0 .343.469Zm1.23-1.503c.05.056.111.117.184.178.09.075.2.15.317.226a3.813 3.813 0 0 1 .65.521 3.809 3.809 0 0 0-.74-.616 3.128 3.128 0 0 1-.317-.225 1.764 1.764 0 0 1-.094-.084Z" fill="#000"/><path opacity=".41" fill-rule="evenodd" clip-rule="evenodd" d="M14.066 15.455 13.76 4.83l-.055-.057.146 10.531s-1.278 2.012-1.468 1.956c-.28-.085.553-13.276.553-13.276l-.091-.094a.336.336 0 0 0-.118-.057l-.68 14.094-.008.198.235-.31 1.793-2.36Z" fill="url(#g)"/><path fill-rule="evenodd" clip-rule="evenodd" d="M10.598 4.445a9.364 9.364 0 0 1-.344 1.109c-.064.15.008.291.145.31.145.02.307-.084.362-.235.009-.028.253-.64.408-1.363v-.01l-.572.189Z" fill="url(#h)"/><path fill-rule="evenodd" clip-rule="evenodd" d="M6.513 5.76c-.127.283-.254.527-.345.696-.08.142-.036.292.1.33.136.047.317-.038.398-.18.01-.018.272-.479.508-1.062l-.661.217Z" fill="url(#i)"/><path opacity=".32" fill-rule="evenodd" clip-rule="evenodd" d="m12.038 18.116 2.028-2.661 2.809 1.58-4.837 1.08Z" fill="url(#j)"/><path opacity=".19" fill-rule="evenodd" clip-rule="evenodd" d="m12.038 18.116 2.01-2.661 2.827 1.58-4.837 1.08Z" fill="url(#k)"/><path opacity=".19" fill-rule="evenodd" clip-rule="evenodd" d="m12.038 18.116 2.01-2.661 2.827 1.58-4.837 1.08Z" fill="url(#l)"/><path opacity=".6" fill-rule="evenodd" clip-rule="evenodd" d="M10.064 10.669c1.05 1.476 1.757 3.074 2.11 4.626l.553-11.48c-.1-.02-.2 0-.227.009L4.819 6.297s-.072.018-.163.056c1.948.696 3.895 2.19 5.408 4.316Z" fill="url(#m)"/><path fill-rule="evenodd" clip-rule="evenodd" d="M15.108 4.962a.132.132 0 0 1 .046.094l1.684 11.969-2.771-1.58-.308-10.624L15 4.915c.009.009.063.009.108.047Z" fill="url(#n)"/><path fill-rule="evenodd" clip-rule="evenodd" d="M14.91 4.99s.054 0 .099.047a.171.171 0 0 1 .054.094l1.658 11.838.127.075-1.685-11.979s-.009-.056-.046-.094c-.045-.038-.108-.038-.108-.038l-1.24-.094 1.14.15Z" fill="url(#o)"/><path fill-rule="evenodd" clip-rule="evenodd" d="m3.125 16.385 8.913 1.73.435-9.797-8.24.234-1.108 7.833Z" fill="url(#p)"/><path opacity=".3" fill-rule="evenodd" clip-rule="evenodd" d="M6.05 6.434c-.08.228 0 .468.18.536s.391-.062.473-.29c.08-.23 0-.47-.18-.537-.18-.068-.391.062-.472.29Z" fill="#fff"/><path opacity=".89" fill-rule="evenodd" clip-rule="evenodd" d="M6.04 6.325c-.08.229 0 .469.18.537.18.067.392-.063.473-.291.081-.229.001-.47-.18-.537-.18-.068-.39.063-.472.291Z" fill="#000"/><path fill-rule="evenodd" clip-rule="evenodd" d="m13.768 4.83-.924-.95a.336.336 0 0 0-.118-.056l-.688 14.292 2.038-2.67-.308-10.616Z" fill="url(#q)"/><path fill-rule="evenodd" clip-rule="evenodd" d="M12.5 3.833 4.819 6.297s-.326.094-.407.197c-.01.01-.01.02-.018.029l7.743-2.22c.064-.018.218-.075.2.386l-.471 13.408.163.028.688-14.292a.407.407 0 0 0-.217 0Z" fill="url(#r)"/><path fill-rule="evenodd" clip-rule="evenodd" d="M12.5 3.833 4.819 6.297s-.326.094-.407.197c-.01.01-.01.02-.018.029l1.793-.518 6.168-1.984a.524.524 0 0 1 .226-.009l-.68 14.085.128.028.688-14.292a.407.407 0 0 0-.217 0Z" fill="url(#s)"/><path opacity=".32" fill-rule="evenodd" clip-rule="evenodd" d="m14.475 15.68-.408-.235-2.038 2.67.108-.028s1.794-2.397 1.957-2.473c.118-.046.38.066.38.066Z" fill="url(#t)"/><path opacity=".57" fill-rule="evenodd" clip-rule="evenodd" d="m12.038 18.116 2.038-2.67c-.01.009-1.295 1.466-2.038 2.67Z" fill="url(#u)"/><path opacity=".46" fill-rule="evenodd" clip-rule="evenodd" d="m16.875 17.034-2.8-1.58c-.008 0 .318.057 2.8 1.58Z" fill="url(#v)"/><path opacity=".3" fill-rule="evenodd" clip-rule="evenodd" d="M10.192 5.496c-.082.229-.001.469.179.537.18.067.392-.063.473-.291.081-.229 0-.469-.179-.537-.18-.068-.392.063-.473.291Z" fill="#fff"/><path opacity=".89" fill-rule="evenodd" clip-rule="evenodd" d="M10.182 5.388c-.081.229 0 .469.18.537.18.067.391-.063.472-.291.081-.229.001-.47-.179-.537-.18-.068-.391.063-.473.291Z" fill="#000"/><path fill-rule="evenodd" clip-rule="evenodd" d="M6.368 6.786H6.33c-.144-.02-.244-.16-.226-.32.018-.15.534-3.667 2.654-4.466.534-.198.987-.16 1.331.132.417.347.643 1.043.68 2.059.027.714-.055 1.335-.055 1.363-.018.15-.153.263-.299.235a.268.268 0 0 1-.226-.31c.082-.64.172-2.398-.435-2.906-.19-.16-.453-.178-.806-.047-1.82.687-2.3 3.987-2.3 4.015-.037.141-.145.245-.281.245Z" fill="#595961"/><path opacity=".46" fill-rule="evenodd" clip-rule="evenodd" d="M9.982 2.15c-.317-.263-.734-.3-1.232-.122-.86.33-1.585 1.194-2.084 2.501a8.986 8.986 0 0 0-.498 1.88.175.175 0 0 0 .037.132c.027.038.063.066.108.066h.028a.168.168 0 0 0 .163-.15c.009-.038.489-3.395 2.364-4.1.38-.141.688-.122.905.066.643.536.553 2.35.471 3-.009.093.055.187.145.197a.173.173 0 0 0 .19-.15c.01-.104.327-2.549-.597-3.32Z" fill="#B2B2C2"/><path opacity=".81" fill-rule="evenodd" clip-rule="evenodd" d="M6.331 6.504h-.017c-.055-.01-.091-.066-.082-.123.01-.037.127-.893.498-1.861.498-1.288 1.205-2.144 2.047-2.464.48-.178.87-.14 1.168.104.888.742.58 3.15.562 3.253-.01.056-.054.094-.118.084-.054-.009-.09-.056-.09-.122 0-.028.308-2.388-.49-3.065-.235-.179-.561-.197-.96-.047-1.91.724-2.409 4.118-2.409 4.156a.11.11 0 0 1-.109.085Z" fill="#B2B2C2"/><path opacity=".42" fill-rule="evenodd" clip-rule="evenodd" d="M7.527 3.814c.1-.14.19-.282.28-.432-.035.047-.298.536-.841.46-.01 0 .307.104.56-.028Zm-.307.602c.08-.15.162-.31.225-.46-.027.056-.208.563-.779.563 0 0 .318.066.553-.103Zm-.236.621c.072-.16.127-.32.18-.48-.026.057-.126.574-.724.64 0-.01.326.028.544-.16Z" fill="#595961"/><path opacity=".62" fill-rule="evenodd" clip-rule="evenodd" d="M10.607 3.203a5.1 5.1 0 0 0-.154-.498c.018.056.199.592-.172.978 0 0 .271-.188.325-.48Zm-.353-.846a6.179 6.179 0 0 0-.381-.338c.046.047.471.394.354.921-.01 0 .126-.31.027-.583Zm.443 1.711a5.071 5.071 0 0 0-.063-.517c0 .066.09.62-.344.922 0 0 .299-.132.408-.405Zm.046.884c.009-.17.009-.348 0-.517 0 .066.009.62-.453.874 0-.009.317-.103.453-.357Z" fill="#595961"/><path opacity=".42" fill-rule="evenodd" clip-rule="evenodd" d="M6.775 5.723c.055-.17.091-.338.127-.498-.018.056-.1.592-.652.724.01 0 .335-.01.525-.226Zm1.096-2.426a3.32 3.32 0 0 0 .354-.367c-.046.038-.408.424-.915.282.009 0 .29.17.561.085Zm.408-.432a6.44 6.44 0 0 0 .416-.292c-.053.029-.47.339-.95.113 0 0 .253.216.534.179Z" fill="#595961"/><path opacity=".62" fill-rule="evenodd" clip-rule="evenodd" d="M8.831 2.555c.164-.047.318-.104.471-.16-.054.019-.543.188-.942-.17 0 0 .19.283.471.33Zm.462-.17c.128.02.254.029.381.038-.045-.01-.435-.038-.607-.414.01 0 .054.254.226.376Zm.49.207c.081.103.162.207.244.3-.027-.037-.28-.347-.154-.732.01 0-.127.216-.09.432Z" fill="#595961"/><path fill-rule="evenodd" clip-rule="evenodd" d="M10.408 5.366c.008-.103.317-2.482-.544-3.206a.864.864 0 0 0-.58-.207c-.163 0-.344.037-.534.113-.834.31-1.53 1.147-2.02 2.426-.371.959-.489 1.814-.498 1.852 0 .028.018.056.045.056h.01c.027 0 .044-.019.044-.047.01-.037.499-3.47 2.446-4.203.417-.16.77-.131 1.024.085.824.686.516 3.084.507 3.112 0 .028.018.057.045.057h.009c.027.009.046-.01.046-.038Z" fill="url(#w)"/><path fill-rule="evenodd" clip-rule="evenodd" d="M10.77 4.19c-.036-1.015-.263-1.701-.68-2.059a1.115 1.115 0 0 0-.805-.253c.235.018.452.103.634.253.417.348.643 1.044.679 2.06.027.714-.054 1.335-.054 1.363a.276.276 0 0 1-.182.226c.019.009.027.009.046.009a.267.267 0 0 0 .299-.235c.009-.028.09-.64.063-1.363Z" fill="url(#x)"/><path fill-rule="evenodd" clip-rule="evenodd" d="M8.768 2.526c-1.82.687-2.3 3.987-2.3 4.024a.275.275 0 0 1-.182.226c.018.01.027.01.045.01h.037a.268.268 0 0 0 .262-.236c.01-.037.48-3.328 2.3-4.014.128-.047.236-.076.336-.085a1.122 1.122 0 0 0-.498.075Z" fill="url(#y)"/><defs><linearGradient id="a" x1="8.507" y1="2.463" x2="8.223" y2="6.33" gradientUnits="userSpaceOnUse"><stop stop-color="#fff" stop-opacity=".65"/><stop offset="1" stop-color="#fff" stop-opacity=".01"/></linearGradient><linearGradient id="b" x1="10.583" y1="4.677" x2="12.583" y2="6.428" gradientUnits="userSpaceOnUse"><stop stop-opacity=".01"/><stop offset="1" stop-opacity=".4"/></linearGradient><linearGradient id="c" x1="9.781" y1="6.703" x2="11.898" y2="4.731" gradientUnits="userSpaceOnUse"><stop stop-opacity=".01"/><stop offset="1" stop-opacity=".4"/></linearGradient><linearGradient id="d" x1="7.086" y1=".949" x2="-1.136" y2="10.423" gradientUnits="userSpaceOnUse"><stop stop-color="#B8D26E"/><stop offset="1" stop-color="#7FB525"/></linearGradient><linearGradient id="e" x1="18.334" y1="3.321" x2="13.821" y2="3.405" gradientUnits="userSpaceOnUse"><stop stop-color="#B4E034"/><stop offset="1" stop-color="#60A927"/></linearGradient><linearGradient id="f" x1="4.911" y1="9.638" x2="1.212" y2="18.648" gradientUnits="userSpaceOnUse"><stop stop-color="#fff"/><stop offset="1" stop-color="#CECEEB"/></linearGradient><linearGradient id="g" x1="10.216" y1="31.826" x2="16.076" y2="31.814" gradientUnits="userSpaceOnUse"><stop stop-color="#1D1D1B" stop-opacity=".5"/><stop offset=".038" stop-color="#1D1D1B" stop-opacity=".484"/><stop offset=".424" stop-color="#1D1D1B" stop-opacity=".319"/><stop offset="1" stop-color="#1D1D1B" stop-opacity=".01"/></linearGradient><linearGradient id="h" x1="10.897" y1="3.625" x2="9.925" y2="4.149" gradientUnits="userSpaceOnUse"><stop stop-opacity=".01"/><stop offset="1" stop-opacity=".4"/></linearGradient><linearGradient id="i" x1="6.821" y1="5.177" x2="6.138" y2="5.764" gradientUnits="userSpaceOnUse"><stop stop-opacity=".01"/><stop offset="1" stop-opacity=".4"/></linearGradient><linearGradient id="j" x1="13.487" y1="17.041" x2="13.556" y2="17.953" gradientUnits="userSpaceOnUse"><stop stop-opacity=".01"/><stop offset="1" stop-opacity=".4"/></linearGradient><linearGradient id="k" x1="11.871" y1="15.706" x2="12.032" y2="18.077" gradientUnits="userSpaceOnUse"><stop stop-color="#fff" stop-opacity=".5"/><stop offset=".09" stop-color="#fff" stop-opacity=".455"/><stop offset="1" stop-color="#fff" stop-opacity=".01"/></linearGradient><linearGradient id="l" x1="11.563" y1="16.075" x2="11.848" y2="18.608" gradientUnits="userSpaceOnUse"><stop stop-opacity=".01"/><stop offset="1" stop-opacity=".4"/></linearGradient><linearGradient id="m" x1="10.444" y1="1.502" x2="3.126" y2="5.734" gradientUnits="userSpaceOnUse"><stop stop-color="#fff" stop-opacity=".5"/><stop offset="1" stop-color="#fff" stop-opacity=".01"/></linearGradient><linearGradient id="n" x1="11.855" y1="23.621" x2="18.314" y2="23.634" gradientUnits="userSpaceOnUse"><stop stop-color="#1D1D1B" stop-opacity=".5"/><stop offset=".09" stop-color="#1D1D1B" stop-opacity=".455"/><stop offset="1" stop-color="#1D1D1B" stop-opacity=".01"/></linearGradient><linearGradient id="o" x1="16.481" y1="4.483" x2="15.563" y2="4.708" gradientUnits="userSpaceOnUse"><stop stop-color="#fff" stop-opacity=".4"/><stop offset="1" stop-color="#fff" stop-opacity=".01"/></linearGradient><linearGradient id="p" x1="8.249" y1="18.22" x2="8.726" y2="15.92" gradientUnits="userSpaceOnUse"><stop stop-color="#1D1D1B" stop-opacity=".5"/><stop offset=".09" stop-color="#1D1D1B" stop-opacity=".455"/><stop offset="1" stop-color="#1D1D1B" stop-opacity=".01"/></linearGradient><linearGradient id="q" x1="11.007" y1="31.533" x2="16.888" y2="31.538" gradientUnits="userSpaceOnUse"><stop stop-color="#1D1D1B" stop-opacity=".5"/><stop offset="1" stop-color="#1D1D1B" stop-opacity=".01"/></linearGradient><linearGradient id="r" x1="5.634" y1="3.005" x2="2.781" y2="13.963" gradientUnits="userSpaceOnUse"><stop stop-color="#fff" stop-opacity=".5"/><stop offset="1" stop-color="#fff" stop-opacity=".01"/></linearGradient><linearGradient id="s" x1="5.634" y1="3.005" x2="2.781" y2="13.963" gradientUnits="userSpaceOnUse"><stop stop-color="#fff" stop-opacity=".5"/><stop offset="1" stop-color="#fff" stop-opacity=".01"/></linearGradient><linearGradient id="t" x1="12.555" y1="14.491" x2="10.301" y2="17.594" gradientUnits="userSpaceOnUse"><stop stop-color="#fff" stop-opacity=".5"/><stop offset=".09" stop-color="#fff" stop-opacity=".455"/><stop offset="1" stop-color="#fff" stop-opacity=".01"/></linearGradient><linearGradient id="u" x1="13.235" y1="15.205" x2="13.012" y2="15.705" gradientUnits="userSpaceOnUse"><stop stop-opacity=".01"/><stop offset="1" stop-opacity=".4"/></linearGradient><linearGradient id="v" x1="15.449" y1="15.866" x2="15.438" y2="16.001" gradientUnits="userSpaceOnUse"><stop stop-opacity=".01"/><stop offset="1" stop-opacity=".4"/></linearGradient><linearGradient id="w" x1="7.331" y1="1.636" x2="6.356" y2="5.486" gradientUnits="userSpaceOnUse"><stop stop-color="#fff" stop-opacity=".65"/><stop offset="1" stop-color="#fff" stop-opacity=".01"/></linearGradient><linearGradient id="x" x1="9.512" y1="3.857" x2="11.207" y2="5.581" gradientUnits="userSpaceOnUse"><stop stop-opacity=".01"/><stop offset="1" stop-opacity=".4"/></linearGradient><linearGradient id="y" x1="8.428" y1="6.395" x2="10.77" y2="3.99" gradientUnits="userSpaceOnUse"><stop stop-opacity=".01"/><stop offset="1" stop-opacity=".4"/></linearGradient></defs></svg>