<svg width="20" height="20" fill="none" xmlns="http://www.w3.org/2000/svg"><path d="M15.53 6.01c.195-1.27 0-2.116-.681-2.898-.747-.879-2.11-1.237-3.864-1.237H5.953a.73.73 0 0 0-.714.619l-2.11 13.351a.428.428 0 0 0 .422.489h3.116l-.227 1.368c-.032.228.13.423.39.423h2.63c.324 0 .584-.228.616-.521l.552-3.452c.033-.293.325-.521.617-.521h.39c2.532 0 4.545-1.042 5.129-4.038.227-1.238.13-2.312-.52-3.029-.194-.228-.421-.39-.714-.553Z" fill="#009CDE"/><path d="M15.53 6.01c.195-1.27 0-2.116-.681-2.898-.747-.879-2.11-1.237-3.864-1.237H5.953a.73.73 0 0 0-.714.619l-2.11 13.351a.428.428 0 0 0 .422.489h3.116l.747-4.82a.73.73 0 0 1 .714-.618h1.494c2.921 0 5.194-1.173 5.843-4.625.033-.065.033-.163.065-.26Z" fill="#012169"/><path d="M8.29 6.043c.033-.228.325-.52.617-.52h3.961c.455 0 .91.032 1.299.097.357.065 1.006.228 1.33.423.196-1.27 0-2.116-.68-2.898-.715-.912-2.079-1.27-3.832-1.27H5.953a.73.73 0 0 0-.714.619l-2.11 13.351a.428.428 0 0 0 .422.489h3.116l1.624-10.29Z" fill="#003087"/></svg>