<svg width="38" height="38" fill="none" xmlns="http://www.w3.org/2000/svg"><rect width="38" height="38" rx="19" fill="#fff"/><path d="M29 18.1v-4.2c0-3.5-1.4-4.9-4.9-4.9h-4.2c-3.5 0-4.9 1.4-4.9 4.9V15h3.1c3.5 0 4.9 1.4 4.9 4.9V23h1.1c3.5 0 4.9-1.4 4.9-4.9Z" stroke="#3D425A" stroke-width="1.5" stroke-linecap="round" stroke-linejoin="round"/><path d="M23 24.1v-4.2c0-3.5-1.4-4.9-4.9-4.9h-4.2C10.4 15 9 16.4 9 19.9v4.2c0 3.5 1.4 4.9 4.9 4.9h4.2c3.5 0 4.9-1.4 4.9-4.9Z" stroke="#3D425A" stroke-width="1.5" stroke-linecap="round" stroke-linejoin="round"/><path d="m13.08 22 1.95 1.95 3.89-3.9" stroke="#3D425A" stroke-width="1.5" stroke-linecap="round" stroke-linejoin="round"/></svg>