<svg width="24" height="25" fill="none" xmlns="http://www.w3.org/2000/svg"><g clip-path="url(#a)"><path d="M24 12.488c0-6.628-5.373-12-12-12s-12 5.372-12 12c0 5.99 4.388 10.954 10.125 11.854v-8.385H7.078v-3.47h3.047V9.845c0-3.007 1.792-4.669 4.533-4.669 1.313 0 2.686.235 2.686.235v2.953H15.83c-1.491 0-1.956.925-1.956 1.874v2.25h3.328l-.532 3.47h-2.796v8.385C19.612 23.442 24 18.477 24 12.488Z" fill="#1877F2"/><path d="m16.671 15.957.532-3.47h-3.328v-2.25c0-.95.465-1.874 1.956-1.874h1.513V5.41s-1.374-.235-2.687-.235c-2.74 0-4.532 1.662-4.532 4.669v2.644H7.078v3.469h3.047v8.385a12.087 12.087 0 0 0 3.75 0v-8.385h2.796Z" fill="#fff"/></g><defs><clipPath id="a"><path fill="#fff" transform="translate(0 .488)" d="M0 0h24v24H0z"/></clipPath></defs></svg>