<svg width="24" height="25" fill="none" xmlns="http://www.w3.org/2000/svg"><path d="M22.502 12.72c0-.863-.072-1.493-.227-2.146h-10.06v3.897h5.905c-.119.968-.761 2.427-2.19 3.407l-.02.13 3.18 2.415.221.021c2.024-1.831 3.19-4.526 3.19-7.723Z" fill="#4285F4"/><path d="M12.215 22.988c2.893 0 5.321-.933 7.095-2.543l-3.38-2.567c-.905.618-2.12 1.05-3.715 1.05a6.438 6.438 0 0 1-6.095-4.364l-.126.01-3.307 2.51-.043.117c1.761 3.43 5.38 5.787 9.571 5.787Z" fill="#34A853"/><path d="M6.12 14.564a6.348 6.348 0 0 1-.357-2.076c0-.724.13-1.424.345-2.077l-.006-.14-3.349-2.548-.11.051a10.339 10.339 0 0 0-1.142 4.714c0 1.691.417 3.29 1.143 4.713l3.476-2.637Z" fill="#FBBC05"/><path d="M12.215 6.048c2.012 0 3.369.851 4.143 1.563l3.024-2.893c-1.857-1.692-4.274-2.73-7.167-2.73-4.19 0-7.81 2.356-9.571 5.786l3.464 2.637a6.465 6.465 0 0 1 6.107-4.363Z" fill="#EB4335"/></svg>