<svg width="24" height="24" fill="none" xmlns="http://www.w3.org/2000/svg"><g clip-path="url(#a)"><path d="M0 0h24v24H0V0Z" fill="#F06"/><path d="M8.168 7.723a1.38 1.38 0 1 0-.04-2.759 1.38 1.38 0 0 0 .04 2.76Zm-2.903 7.385c-.079.34-.12.688-.123 1.036 0 1.215.658 2.021 2.058 2.021 1.16 0 2.102-.69 2.78-1.803l-.415 1.661h2.304l1.318-5.28c.33-1.338.967-2.032 1.935-2.032.761 0 1.234.473 1.234 1.255.004.251-.03.501-.102.742l-.68 2.427a3.66 3.66 0 0 0-.143 1.03c0 1.152.679 1.996 2.098 1.996 1.215 0 2.183-.781 2.717-2.654l-.905-.35c-.453 1.255-.844 1.482-1.152 1.482-.308 0-.474-.206-.474-.618a2.74 2.74 0 0 1 .102-.638l.66-2.366a5.23 5.23 0 0 0 .227-1.5c0-1.771-1.07-2.695-2.368-2.695-1.214 0-2.449 1.096-3.066 2.249L13.722 9h-3.518l-.495 1.824h1.648l-1.014 4.055c-.797 1.77-2.26 1.8-2.443 1.758-.302-.068-.494-.183-.494-.576a3.85 3.85 0 0 1 .144-.942l1.544-6.124h-3.91l-.493 1.824h1.626l-1.052 4.288Z" fill="#fff"/></g><defs><clipPath id="a"><path fill="#fff" d="M0 0h24v24H0z"/></clipPath></defs></svg>