<svg width="24" height="25" fill="none" xmlns="http://www.w3.org/2000/svg"><g clip-path="url(#a)"><path d="M20.45 20.937h-3.557v-5.569c0-1.328-.024-3.037-1.85-3.037-1.851 0-2.135 1.447-2.135 2.94v5.666H9.352V9.485h3.414v1.565h.048a3.741 3.741 0 0 1 3.368-1.85c3.604 0 4.269 2.37 4.269 5.455l-.002 6.282ZM5.34 7.92a2.064 2.064 0 1 1-.001-4.127 2.064 2.064 0 0 1 0 4.127Zm1.778 13.018h-3.56V9.485h3.56v11.452ZM22.222.49H1.77A1.751 1.751 0 0 0 0 2.22v20.536a1.753 1.753 0 0 0 1.77 1.732h20.452A1.757 1.757 0 0 0 24 22.756V2.218a1.755 1.755 0 0 0-1.778-1.73" fill="#0A66C2"/></g><defs><clipPath id="a"><path fill="#fff" transform="translate(0 .488)" d="M0 0h24v24H0z"/></clipPath></defs></svg>