<svg width="140" height="35" fill="none" xmlns="http://www.w3.org/2000/svg"><path d="M15.976 7.896v20.906h-3.382v-1.944a5.43 5.43 0 0 1-2.169 1.606c-.845.357-1.784.535-2.818.535-1.446 0-2.751-.32-3.916-.958a6.935 6.935 0 0 1-2.705-2.705C.33 24.153 0 22.8 0 21.28c0-1.522.329-2.865.986-4.03a6.935 6.935 0 0 1 2.705-2.704c1.165-.639 2.47-.958 3.916-.958.996 0 1.907.169 2.733.507a5.494 5.494 0 0 1 2.114 1.522v-7.72h3.522ZM8.03 25.983c.845 0 1.606-.188 2.282-.563a4.275 4.275 0 0 0 1.606-1.663c.395-.713.592-1.54.592-2.48 0-.938-.197-1.765-.592-2.479a4.077 4.077 0 0 0-1.606-1.634c-.676-.394-1.437-.591-2.282-.591s-1.606.197-2.282.591A4.077 4.077 0 0 0 4.142 18.8c-.395.714-.592 1.54-.592 2.48s.197 1.766.592 2.48a4.28 4.28 0 0 0 1.606 1.662c.676.375 1.437.563 2.282.563Zm18.583.029c1.634 0 2.995-.544 4.085-1.634l1.86 2.17c-.658.807-1.503 1.418-2.536 1.831-1.033.413-2.198.62-3.494.62-1.653 0-3.109-.329-4.367-.986-1.259-.658-2.236-1.569-2.93-2.733-.677-1.184-1.015-2.517-1.015-4.001 0-1.465.329-2.78.986-3.945a7.223 7.223 0 0 1 2.761-2.76c1.184-.658 2.518-.987 4.002-.987 1.408 0 2.686.31 3.831.93a6.741 6.741 0 0 1 2.762 2.62c.676 1.127 1.014 2.451 1.014 3.973l-11.524 2.254c.357.864.93 1.521 1.719 1.972.789.451 1.737.676 2.846.676Zm-.648-9.608c-1.297 0-2.349.423-3.156 1.268-.79.846-1.184 1.982-1.184 3.41v.028l8.51-1.634a3.98 3.98 0 0 0-1.494-2.226c-.732-.564-1.625-.846-2.676-.846Zm23.676-2.648L43.19 28.802h-3.635l-6.452-15.046h3.663l4.677 11.158 4.818-11.158h3.381Zm7.819 12.256c1.633 0 2.995-.544 4.085-1.634l1.86 2.17c-.658.807-1.503 1.418-2.536 1.831-1.033.413-2.198.62-3.494.62-1.653 0-3.109-.329-4.367-.986-1.259-.658-2.236-1.569-2.93-2.733-.677-1.184-1.015-2.517-1.015-4.001 0-1.465.329-2.78.986-3.945a7.221 7.221 0 0 1 2.761-2.76c1.184-.658 2.517-.987 4.001-.987 1.41 0 2.686.31 3.832.93a6.741 6.741 0 0 1 2.761 2.62c.677 1.127 1.015 2.451 1.015 3.973l-11.524 2.254c.357.864.93 1.521 1.719 1.972.789.451 1.737.676 2.845.676Zm-.649-9.608c-1.296 0-2.348.423-3.155 1.268-.79.846-1.184 1.982-1.184 3.41v.028l8.51-1.634a3.98 3.98 0 0 0-1.494-2.226c-.733-.564-1.625-.846-2.677-.846Zm14.823 12.595c-1.559 0-2.78-.423-3.662-1.268-.865-.864-1.297-2.076-1.297-3.635v-16.2h3.522v15.947c0 1.503.705 2.254 2.114 2.254.47 0 .892-.094 1.267-.282l.17 2.818a6.02 6.02 0 0 1-2.114.366Zm9.866 0c-1.52 0-2.892-.329-4.113-.986a7.32 7.32 0 0 1-2.874-2.733c-.676-1.184-1.014-2.517-1.014-4.001 0-1.484.338-2.808 1.014-3.973a7.32 7.32 0 0 1 2.874-2.733c1.22-.657 2.592-.986 4.114-.986 1.54 0 2.92.329 4.141.986s2.17 1.569 2.846 2.733c.695 1.165 1.043 2.489 1.043 3.973s-.348 2.817-1.043 4c-.676 1.165-1.625 2.076-2.846 2.734-1.22.657-2.601.986-4.141.986Zm0-3.015c1.297 0 2.367-.432 3.213-1.296.845-.864 1.268-2 1.268-3.41 0-1.408-.423-2.544-1.268-3.408-.846-.864-1.916-1.296-3.212-1.296-1.297 0-2.367.432-3.212 1.296-.827.864-1.24 2-1.24 3.409 0 1.409.413 2.545 1.24 3.41.845.863 1.915 1.295 3.212 1.295Zm18.611-12.397c1.466 0 2.771.32 3.917.958a6.89 6.89 0 0 1 2.733 2.705c.657 1.164.986 2.507.986 4.029 0 1.521-.329 2.874-.986 4.057a6.89 6.89 0 0 1-2.733 2.705c-1.146.639-2.451.958-3.917.958-2.028 0-3.634-.676-4.818-2.029v7.298h-3.522V13.756h3.353v1.972a5.47 5.47 0 0 1 2.142-1.606c.864-.357 1.812-.535 2.845-.535Zm-.394 12.397c1.296 0 2.357-.432 3.184-1.296.845-.864 1.268-2 1.268-3.41 0-1.408-.423-2.544-1.268-3.408-.827-.864-1.888-1.296-3.184-1.296-.845 0-1.606.197-2.282.591a4.076 4.076 0 0 0-1.606 1.634c-.395.714-.592 1.54-.592 2.48s.197 1.766.592 2.48a4.28 4.28 0 0 0 1.606 1.662c.676.375 1.437.563 2.282.563Zm15.202 3.015c-1.559 0-2.78-.423-3.663-1.268-.864-.864-1.296-2.076-1.296-3.635v-16.2h3.522v15.947c0 1.503.705 2.254 2.113 2.254.47 0 .893-.094 1.268-.282l.169 2.818a6.019 6.019 0 0 1-2.113.366Zm3.379-15.243h3.522v15.046h-3.522V13.756Zm1.775-2.48c-.638 0-1.174-.197-1.606-.591a2.024 2.024 0 0 1-.648-1.522c0-.6.216-1.098.648-1.493.432-.413.968-.62 1.606-.62.639 0 1.174.197 1.606.592.432.376.648.855.648 1.437 0 .62-.216 1.146-.648 1.578-.413.413-.948.62-1.606.62Z" fill="#2D2D2D"/><path d="M135.01.002v.002a10.532 10.532 0 0 1 1.478.101l.193.029h.014c.049.006.098.016.147.024.033.007.067.011.098.017.1.02.2.038.299.059.138.029.274.061.41.096l.045.01c.023.006.044.01.065.017l.014.004c.168.044.334.093.499.145l.185.06a17.06 17.06 0 0 1 .254.09l.035.012c.014.005.026.011.04.015l.167.064c.014.004.024.01.036.015.024.01.048.019.071.03l.136.054A12.348 12.348 0 0 1 140 5.238c-.319 5.025-2.656 8.998-6.809 11.186-.114.059-.228.115-.344.17-.025.01-.05.023-.076.034a11.63 11.63 0 0 1-2.692.873c-.014 0-.014.006-.021.006-.71.136-1.441.208-2.188.208v-.007c-.206 0-.411-.006-.615-.017-.024 0-.048-.006-.072-.006-.047-.006-.095-.006-.143-.01-.031 0-.06 0-.09-.007a14.044 14.044 0 0 1-.295-.027c-.082-.009-.163-.02-.244-.028-.02-.007-.041-.007-.061-.007a12.187 12.187 0 0 1-.879-.15l-.286-.065c-.049-.01-.097-.024-.145-.036-.05-.101-.101-.203-.149-.305 0-.007-.014-.015-.014-.024a11.65 11.65 0 0 1-.168-.377c0-.01-.014-.024-.014-.035-.05-.119-.098-.238-.144-.358 0-.009 0-.015-.014-.024a12.18 12.18 0 0 1-.583-2.05c0-.016 0-.032-.014-.048-.014-.037-.014-.074-.02-.111-.014-.055-.02-.109-.028-.163-.014-.042-.014-.082-.018-.123-.014-.055-.018-.11-.025-.164 0-.034-.014-.068-.014-.101-.014-.063-.018-.124-.024-.186 0-.025 0-.05-.014-.076-.014-.073-.016-.146-.022-.22v-.02a12.43 12.43 0 0 1 .17-3.469c0-.03.014-.058.018-.086 0-.022.014-.043.014-.064 0-.029.014-.059.018-.088.014-.038.018-.077.025-.115.014-.052.023-.104.036-.156.014-.037.018-.074.027-.11 0-.013 0-.026.013-.04.02-.079.04-.157.062-.236.014-.045.023-.09.037-.135.014-.043.025-.086.038-.129 0-.017.014-.034.014-.05l.073-.236c.014-.033.02-.066.031-.098.057-.172.117-.341.181-.509v-.004c.014-.024.02-.049.031-.074a12.062 12.062 0 0 1 .699-1.49 11.694 11.694 0 0 1 4.018-4.24l.056-.034.132-.078c.065-.039.13-.079.197-.116l.039-.022c.099-.056.201-.11.302-.163.022-.01.043-.022.063-.033l.08-.04c.087-.043.172-.086.259-.127.016-.006.032-.015.049-.022A10.753 10.753 0 0 1 135.003 0l.007.002Zm-15.005 6.819c1.393 0 2.545 1.209 2.545 2.672s-1.152 2.673-2.545 2.673c-1.394 0-2.545-1.21-2.545-2.673s1.151-2.672 2.545-2.672Zm18.907 6.577a12.246 12.246 0 0 1 1.081 5.05c0 .801-.077 1.584-.221 2.34a12.178 12.178 0 0 1-.583 2.052 11.993 11.993 0 0 1-.427.168c0 .006-.014.006-.02.006a.293.293 0 0 1-.04.015l-.197.07a2.337 2.337 0 0 0-.052.02l-.139.044-.051.017c-.152.048-.304.093-.458.134-.016.006-.031.008-.047.012a.58.58 0 0 1-.063.015l-.193.049a10.729 10.729 0 0 1-2.35.29h-.142c-.089 0-.176 0-.263-.007h-.076c-.065 0-.131-.006-.196-.008-.024 0-.047-.006-.071-.006-.078-.006-.158-.01-.236-.015h-.029a8.27 8.27 0 0 1-.252-.024c-.027-.006-.053-.006-.08-.008a6.815 6.815 0 0 1-.195-.023c-.021-.006-.042-.006-.064-.009-.068-.01-.137-.018-.204-.03-.021-.006-.042-.006-.062-.01l-.247-.043c-.022-.006-.045-.009-.069-.015a5.094 5.094 0 0 1-.178-.036c-.031-.006-.063-.015-.094-.02l-.182-.043c-.019-.006-.039-.008-.058-.014l-.248-.064c-.016-.007-.031-.009-.046-.013a9.794 9.794 0 0 1-.534-.161l-.054-.019c-.106-.036-.21-.073-.315-.112-.024-.009-.047-.019-.071-.027a12.378 12.378 0 0 1-.771-.326 12.586 12.586 0 0 1-.334-.165c-.022-.01-.046-.024-.068-.036a11.369 11.369 0 0 1-.304-.165c-.014-.006-.023-.013-.033-.019a9.558 9.558 0 0 1-.325-.192l-.067-.041a11.435 11.435 0 0 1-.309-.2v-.006a10.794 10.794 0 0 1-.322-.224l-.051-.037c-.1-.073-.2-.148-.299-.225 0 0 0-.006-.014-.006-.102-.08-.202-.163-.302-.246-.016-.015-.032-.027-.048-.04a12.264 12.264 0 0 1-.579-.526l-.041-.04a11.645 11.645 0 0 1-.541-.57l-.04-.044c-.173-.197-.34-.4-.5-.61-.014-.014-.024-.03-.036-.045a10.633 10.633 0 0 1-.461-.651c-.014-.015-.02-.03-.029-.044a13.639 13.639 0 0 1-.214-.339c0-.006-.014-.015-.014-.021a13.562 13.562 0 0 1-.196-.338c0-.01-.014-.02-.018-.03-.066-.12-.131-.242-.194-.364 0-.006 0-.013-.014-.02-.014-.016-.018-.035-.027-.052l.014.006.117.047a20.143 20.143 0 0 0 .473.175l.06.021c.066.023.133.044.2.066l.077.023.198.06.066.019a4.836 4.836 0 0 0 .277.076l.205.051a11.997 11.997 0 0 0 1.165.215c.02.007.041.007.061.007.081.01.162.021.244.028a9.5 9.5 0 0 0 .295.028.436.436 0 0 0 .09.006c.048.006.096.006.144.01.023 0 .047.007.071.007.204.01.409.017.616.017v.006c.746 0 1.477-.072 2.187-.208.015 0 .015-.006.022-.006a11.63 11.63 0 0 0 2.692-.873c.025-.01.05-.023.075-.035.115-.055.23-.11.344-.17a12.36 12.36 0 0 0 4.19-3.533l-.006.004Z" fill="#47D18C"/></svg>