<svg width="164" height="41" fill="none" xmlns="http://www.w3.org/2000/svg"><path d="M18.758 9.371v24.404H14.81v-2.27a6.337 6.337 0 0 1-2.533 1.875c-.986.417-2.083.625-3.289.625-1.688 0-3.212-.373-4.571-1.118A8.094 8.094 0 0 1 1.26 29.73C.493 28.348.11 26.77.11 24.992c0-1.776.383-3.343 1.15-4.703a8.095 8.095 0 0 1 3.158-3.157c1.36-.746 2.883-1.118 4.571-1.118 1.163 0 2.226.197 3.19.592a6.418 6.418 0 0 1 2.467 1.776V9.37h4.112ZM9.483 30.486c.986 0 1.874-.22 2.664-.658a4.99 4.99 0 0 0 1.875-1.94c.46-.834.69-1.798.69-2.895 0-1.096-.23-2.06-.69-2.894-.46-.833-1.086-1.469-1.875-1.907-.79-.46-1.678-.691-2.664-.691-.987 0-1.875.23-2.664.69-.79.44-1.414 1.075-1.875 1.908-.46.833-.69 1.798-.69 2.894 0 1.097.23 2.062.69 2.895a4.989 4.989 0 0 0 1.875 1.94c.79.439 1.677.658 2.664.658Zm21.691.033c1.908 0 3.497-.636 4.77-1.908l2.17 2.533c-.768.943-1.754 1.655-2.96 2.138-1.206.482-2.566.723-4.079.723-1.929 0-3.628-.384-5.097-1.151-1.47-.767-2.61-1.83-3.42-3.19-.79-1.382-1.185-2.938-1.185-4.67 0-1.71.384-3.246 1.151-4.605a8.43 8.43 0 0 1 3.223-3.223c1.382-.768 2.939-1.151 4.67-1.151 1.645 0 3.136.361 4.474 1.085a7.87 7.87 0 0 1 3.223 3.059c.79 1.315 1.184 2.861 1.184 4.637l-13.452 2.631c.417 1.009 1.085 1.776 2.006 2.303.921.526 2.029.789 3.322.789Zm-.756-11.215c-1.513 0-2.741.493-3.684 1.48-.92.986-1.381 2.313-1.381 3.98v.032l9.932-1.907a4.645 4.645 0 0 0-1.743-2.599c-.855-.658-1.896-.986-3.124-.986Zm27.638-3.092-7.532 17.563H46.28l-7.53-17.563h4.276l5.46 13.024 5.624-13.024h3.947Zm9.126 14.307c1.907 0 3.497-.636 4.769-1.908l2.17 2.533c-.767.943-1.754 1.655-2.96 2.138-1.206.482-2.565.723-4.078.723-1.93 0-3.629-.384-5.098-1.151-1.469-.767-2.61-1.83-3.42-3.19-.79-1.382-1.184-2.938-1.184-4.67 0-1.71.383-3.246 1.15-4.605a8.43 8.43 0 0 1 3.224-3.223c1.381-.768 2.938-1.151 4.67-1.151 1.645 0 3.136.361 4.473 1.085a7.869 7.869 0 0 1 3.223 3.059c.79 1.315 1.184 2.861 1.184 4.637l-13.452 2.631c.417 1.009 1.086 1.776 2.007 2.303.92.526 2.028.789 3.322.789Zm-.757-11.215c-1.513 0-2.74.493-3.683 1.48-.921.986-1.382 2.313-1.382 3.98v.032l9.933-1.907a4.645 4.645 0 0 0-1.743-2.599c-.855-.658-1.897-.986-3.125-.986Zm17.303 14.701c-1.82 0-3.245-.493-4.276-1.48-1.008-1.008-1.513-2.423-1.513-4.243V9.371h4.112v18.615c0 1.754.822 2.631 2.466 2.631.549 0 1.042-.11 1.48-.328l.198 3.288a7.026 7.026 0 0 1-2.467.428Zm11.517 0c-1.776 0-3.377-.384-4.802-1.151a8.543 8.543 0 0 1-3.355-3.19c-.789-1.382-1.184-2.938-1.184-4.67 0-1.733.395-3.279 1.184-4.638a8.543 8.543 0 0 1 3.355-3.19c1.425-.768 3.026-1.151 4.802-1.151 1.798 0 3.41.383 4.835 1.15 1.425.768 2.532 1.832 3.321 3.191.812 1.36 1.217 2.905 1.217 4.637 0 1.733-.405 3.29-1.217 4.67-.789 1.36-1.896 2.424-3.321 3.191-1.426.767-3.037 1.151-4.835 1.151Zm0-3.52c1.513 0 2.763-.503 3.75-1.512.986-1.009 1.479-2.335 1.479-3.98 0-1.644-.493-2.97-1.48-3.98-.986-1.008-2.236-1.512-3.75-1.512-1.512 0-2.762.504-3.748 1.513-.965 1.008-1.448 2.335-1.448 3.98 0 1.644.483 2.97 1.448 3.979.986 1.009 2.236 1.513 3.749 1.513Zm21.724-14.47c1.711 0 3.234.372 4.572 1.118a8.034 8.034 0 0 1 3.19 3.157c.768 1.36 1.151 2.927 1.151 4.703 0 1.776-.383 3.355-1.151 4.737a8.033 8.033 0 0 1-3.19 3.157c-1.338.745-2.861 1.118-4.572 1.118-2.368 0-4.242-.79-5.624-2.368v8.518h-4.111V16.212h3.914v2.302a6.387 6.387 0 0 1 2.5-1.874c1.008-.417 2.115-.625 3.321-.625Zm-.46 14.47c1.513 0 2.752-.503 3.716-1.512.987-1.009 1.48-2.335 1.48-3.98 0-1.644-.493-2.97-1.48-3.98-.964-1.008-2.203-1.512-3.716-1.512-.987 0-1.875.23-2.664.69-.789.44-1.414 1.075-1.875 1.908-.46.833-.691 1.798-.691 2.894 0 1.097.231 2.062.691 2.895a4.996 4.996 0 0 0 1.875 1.94c.789.439 1.677.658 2.664.658Zm17.745 3.52c-1.82 0-3.245-.493-4.275-1.48-1.009-1.008-1.513-2.423-1.513-4.243V9.371h4.111v18.615c0 1.754.822 2.631 2.467 2.631.548 0 1.041-.11 1.48-.328l.197 3.288a7.027 7.027 0 0 1-2.467.428Zm3.945-17.793h4.111v17.563h-4.111V16.212Zm2.072-2.894c-.746 0-1.37-.23-1.875-.691a2.363 2.363 0 0 1-.756-1.776c0-.702.252-1.283.756-1.743.505-.483 1.129-.724 1.875-.724.745 0 1.37.23 1.875.69.504.44.756.999.756 1.678 0 .724-.252 1.338-.756 1.842-.483.482-1.108.724-1.875.724Z" fill="#2D2D2D"/><path d="M157.706.158V.16a12.893 12.893 0 0 1 1.726.113l.225.031h.017c.057.007.114.019.171.028l.115.018c.115.021.233.042.348.065.161.033.321.069.479.107l.053.011c.026.007.051.012.075.02l.017.004c.196.05.39.103.582.161.073.021.144.045.216.067l.17.057.127.043c.016.004.026.009.04.014.017.004.031.011.047.016l.195.07c.016.005.028.012.042.017.028.012.056.021.083.033l.158.061a13.053 13.053 0 0 1 .939 4.88c-.372 5.583-3.1 9.998-7.948 12.43a18.34 18.34 0 0 1-.401.188c-.03.011-.059.025-.089.038a14.072 14.072 0 0 1-3.142.97c-.016 0-.016.007-.025.007-.829.15-1.682.23-2.554.23v-.007c-.241 0-.48-.007-.718-.019-.028 0-.056-.007-.084-.007-.055-.007-.111-.007-.167-.011-.036 0-.07 0-.105-.007l-.345-.03-.285-.032c-.023-.008-.048-.008-.071-.008l-.325-.044a15.134 15.134 0 0 1-.701-.123l-.333-.072c-.057-.011-.113-.026-.169-.04a18.271 18.271 0 0 1-.175-.339c0-.007-.016-.016-.016-.026a12.5 12.5 0 0 1-.196-.42c0-.01-.016-.025-.016-.038a11.235 11.235 0 0 1-.169-.398c0-.01 0-.016-.016-.026a13.054 13.054 0 0 1-.68-2.279c0-.016 0-.035-.016-.052-.017-.041-.017-.083-.024-.124-.016-.06-.023-.12-.032-.181-.017-.046-.017-.091-.021-.137-.017-.06-.021-.121-.03-.182 0-.038-.016-.075-.016-.113-.016-.069-.021-.136-.028-.206 0-.027 0-.056-.016-.084-.017-.081-.019-.162-.026-.244v-.023a13.187 13.187 0 0 1 .198-3.854c0-.033.017-.065.021-.096 0-.024.017-.047.017-.071 0-.032.016-.065.021-.098.016-.042.021-.085.029-.127.016-.059.026-.117.042-.174.016-.04.021-.082.031-.123 0-.014 0-.028.016-.043.023-.088.046-.175.071-.262.017-.05.028-.101.044-.15l.044-.144c0-.019.017-.038.017-.057l.085-.261c.016-.036.023-.073.037-.11.066-.19.136-.378.211-.564v-.005c.016-.027.023-.054.036-.082a13.343 13.343 0 0 1 .816-1.655 13.252 13.252 0 0 1 4.69-4.711l.065-.039.154-.086c.076-.043.152-.088.23-.13.016-.007.03-.016.046-.024.116-.062.234-.122.353-.181l.072-.036c.031-.016.064-.03.095-.044.1-.048.2-.097.302-.142l.057-.025a13.102 13.102 0 0 1 5.306-1.117l.008.002Zm-17.515 7.576a2.988 2.988 0 0 1 2.971 2.97 2.988 2.988 0 0 1-2.971 2.97 2.988 2.988 0 0 1-2.971-2.97 2.988 2.988 0 0 1 2.971-2.97Zm22.071 7.309a13.066 13.066 0 0 1 1.261 5.611 13.056 13.056 0 0 1-.939 4.88 12.024 12.024 0 0 1-.498.187c0 .007-.016.007-.023.007a.413.413 0 0 1-.046.016c-.078.026-.153.053-.231.078l-.06.021-.162.05c-.022.008-.041.012-.061.02-.176.052-.354.102-.534.148-.018.007-.036.009-.055.014a13.15 13.15 0 0 1-3.041.392h-.166c-.104 0-.206 0-.308-.007h-.088c-.076 0-.153-.007-.229-.01-.028 0-.055-.006-.083-.006-.091-.007-.184-.012-.275-.017h-.034a10.161 10.161 0 0 1-.295-.026c-.031-.007-.062-.007-.093-.009-.075-.007-.151-.017-.227-.026-.025-.007-.05-.007-.076-.01-.079-.011-.159-.02-.238-.032-.024-.007-.049-.007-.072-.012l-.288-.048c-.026-.007-.052-.01-.08-.017a3.633 3.633 0 0 1-.208-.04c-.037-.006-.074-.016-.11-.023l-.213-.046c-.021-.007-.045-.01-.067-.017l-.29-.07c-.019-.008-.035-.01-.054-.015a11.436 11.436 0 0 1-.622-.179l-.064-.02c-.123-.04-.245-.082-.367-.125l-.083-.03a13.86 13.86 0 0 1-.402-.153c-.027-.011-.054-.023-.082-.033a11.832 11.832 0 0 1-.806-.36c-.026-.011-.054-.027-.08-.04-.119-.06-.237-.12-.354-.183-.017-.007-.027-.014-.039-.02-.129-.07-.254-.142-.38-.214-.026-.014-.052-.031-.077-.046a12.487 12.487 0 0 1-.362-.221v-.008c-.126-.08-.252-.163-.375-.248-.022-.014-.039-.028-.059-.042a11.517 11.517 0 0 1-.349-.25s0-.007-.017-.007c-.119-.089-.236-.18-.352-.273-.019-.017-.038-.03-.056-.044a13.52 13.52 0 0 1-.676-.585l-.048-.045a12.714 12.714 0 0 1-.631-.632 13.534 13.534 0 0 1-.632-.726c-.016-.017-.028-.035-.041-.052a11.185 11.185 0 0 1-.538-.723c-.017-.016-.024-.033-.034-.049-.086-.124-.168-.25-.249-.376 0-.007-.017-.017-.017-.024a11.46 11.46 0 0 1-.229-.375c0-.012-.016-.023-.021-.034a17.323 17.323 0 0 1-.227-.404c0-.007 0-.014-.016-.021-.016-.019-.021-.04-.031-.06l.016.008c.047.016.09.035.136.052a24.639 24.639 0 0 0 .553.195l.07.023c.077.026.155.049.233.073.029.01.059.016.09.026l.231.066.077.021c.08.024.161.044.242.064l.082.021.239.057c.112.025.222.05.334.072a14.405 14.405 0 0 0 1.025.167c.024.007.049.007.072.007.094.012.189.023.285.032.114.011.229.02.344.03a.53.53 0 0 0 .105.007c.056.007.112.007.168.012.028 0 .055.007.083.007.238.012.478.019.719.019v.007c.871 0 1.725-.08 2.553-.231.017 0 .017-.007.026-.007a14.077 14.077 0 0 0 3.142-.97l.088-.039a14.28 14.28 0 0 0 5.292-4.115l-.006.005Z" fill="#2D2D2D"/></svg>