<svg width="17" height="20" fill="none" xmlns="http://www.w3.org/2000/svg"><path d="M15.36 5.213c.234-1.524 0-2.54-.818-3.478C13.646.68 12.01.25 9.906.25H3.867c-.428 0-.779.313-.857.742L.478 17.015a.514.514 0 0 0 .506.586h3.74l-.272 1.641c-.04.273.155.508.467.508h3.156c.39 0 .701-.273.74-.625l.662-4.143c.04-.351.39-.625.74-.625h.468c3.039 0 5.454-1.25 6.155-4.845.273-1.485.156-2.775-.623-3.635-.234-.273-.506-.469-.857-.664Z" fill="#009CDE"/><path d="M15.36 5.213c.234-1.524 0-2.54-.818-3.478C13.646.68 12.01.25 9.906.25H3.867c-.428 0-.779.313-.857.742L.478 17.015a.514.514 0 0 0 .506.586h3.74l.896-5.784c.078-.43.429-.742.857-.742H8.27c3.506 0 6.233-1.407 7.012-5.55.039-.078.039-.195.078-.312Z" fill="#012169"/><path d="M6.672 5.252c.04-.274.39-.625.74-.625h4.753c.546 0 1.091.039 1.559.117.428.078 1.207.274 1.597.508.234-1.524 0-2.54-.818-3.478C13.646.68 12.01.25 9.906.25H3.867c-.428 0-.779.313-.857.742L.478 17.015a.514.514 0 0 0 .506.586h3.74L6.672 5.252Z" fill="#003087"/></svg>