<svg width="37" height="37" fill="none" xmlns="http://www.w3.org/2000/svg"><path d="M28.384 11.487c.35-2.286 0-3.81-1.227-5.217-1.344-1.582-3.798-2.227-6.954-2.227h-9.058c-.643 0-1.169.469-1.285 1.114L6.06 29.19a.77.77 0 0 0 .76.879h5.61l-.41 2.462c-.058.41.234.762.702.762h4.733c.585 0 1.052-.41 1.11-.938l.994-6.213c.059-.528.585-.938 1.11-.938h.702c4.558 0 8.181-1.876 9.233-7.269.409-2.227.234-4.162-.935-5.451-.35-.41-.76-.704-1.286-.997Z" fill="#009CDE"/><path d="M28.384 11.487c.35-2.286 0-3.81-1.227-5.217-1.344-1.582-3.798-2.227-6.954-2.227h-9.058c-.643 0-1.169.469-1.285 1.114L6.06 29.19a.77.77 0 0 0 .76.879h5.61l1.344-8.675c.117-.645.643-1.114 1.285-1.114h2.689c5.259 0 9.35-2.11 10.518-8.324.059-.117.059-.293.117-.469Z" fill="#012169"/><path d="M15.353 11.546c.058-.41.584-.938 1.11-.938h7.13c.817 0 1.636.059 2.337.176.643.117 1.811.41 2.396.762.35-2.286 0-3.81-1.227-5.217-1.286-1.641-3.74-2.286-6.896-2.286h-9.058c-.643 0-1.169.469-1.285 1.114L6.06 29.19a.77.77 0 0 0 .76.879h5.61l2.922-18.523Z" fill="#003087"/></svg>