<svg width="25" height="24" fill="none" xmlns="http://www.w3.org/2000/svg"><path fill-rule="evenodd" clip-rule="evenodd" d="M10.615 8.73h-.043a.394.394 0 0 1-.337-.384c-.011-.18-.11-4.4 2.271-5.36.598-.236 1.153-.191 1.62.159.576.417.99 1.252 1.24 2.47.173.858.205 1.603.205 1.636.011.18-.13.316-.315.283a.391.391 0 0 1-.337-.373c-.032-.767-.282-2.877-1.108-3.486-.261-.192-.587-.215-.978-.057-2.044.824-1.946 4.784-1.946 4.83 0 .157-.108.281-.272.281Z" fill="#595961"/><path opacity=".46" fill-rule="evenodd" clip-rule="evenodd" d="M14.006 3.167c-.434-.316-.945-.361-1.5-.147-.967.395-1.652 1.433-1.988 3.013-.25 1.162-.218 2.211-.218 2.256 0 .057.022.113.066.158.043.046.086.08.14.08h.033a.175.175 0 0 0 .174-.181c0-.045-.097-4.073 2-4.92.424-.169.793-.146 1.098.08.88.643 1.141 2.82 1.174 3.599a.25.25 0 0 0 .217.237.174.174 0 0 0 .196-.18c-.011-.136-.13-3.07-1.392-3.995Z" fill="#B2B2C2"/><path opacity=".46" fill-rule="evenodd" clip-rule="evenodd" d="M10.517 8.391h-.022c-.065-.011-.12-.079-.13-.147 0-.045-.033-1.072.217-2.234.326-1.545 1.011-2.572 1.956-2.956.533-.214 1.011-.17 1.425.124 1.217.892 1.336 3.78 1.336 3.904a.1.1 0 0 1-.12.102c-.065-.012-.119-.068-.13-.147 0-.034-.12-2.866-1.217-3.678-.327-.237-.729-.271-1.185-.09-2.13.89-2.032 4.975-2.032 5.02.01.057-.033.102-.098.102Z" fill="#B2B2C2"/><path opacity=".62" fill-rule="evenodd" clip-rule="evenodd" d="M11.398 5.164c.087-.169.173-.338.25-.519-.033.057-.25.643-.913.553-.011 0 .39.124.663-.034Zm-.24.722c.065-.18.13-.372.174-.553-.021.068-.13.677-.826.677 0 0 .402.08.652-.124Zm3.816-1.456c-.087-.202-.185-.394-.283-.597.033.067.36.71-.01 1.173 0 0 .282-.225.293-.575Zm-.598-1.015a8.184 8.184 0 0 0-.522-.406c.065.057.641.474.609 1.106-.012 0 .086-.372-.087-.7Zm-2.663 1.128c.13-.135.239-.282.358-.44-.043.046-.402.508-1.043.339 0 0 .37.203.685.101Zm.402-.518c.152-.113.293-.226.435-.35-.054.034-.5.406-1.12.135 0 0 .359.26.685.215Zm.587-.373c.185-.056.359-.124.533-.192-.066.023-.62.226-1.164-.203.011 0 .294.339.63.395Zm.533-.202c.152.022.304.033.456.044-.054-.011-.533-.045-.804-.496 0 0 .109.304.348.451Zm.629.247c.109.124.229.248.359.361-.043-.045-.413-.417-.326-.88-.011 0-.13.26-.033.52Z" fill="#595961"/><path opacity=".74" fill-rule="evenodd" clip-rule="evenodd" d="M15.18 7.026c0-.124-.12-2.979-1.304-3.848a1.219 1.219 0 0 0-.74-.248c-.196 0-.402.045-.62.135-.945.373-1.608 1.377-1.934 2.911-.25 1.151-.217 2.178-.217 2.223 0 .034.032.068.065.068h.01c.033 0 .055-.023.055-.057 0-.045-.109-4.163 2.076-5.043.478-.192.892-.158 1.24.102 1.13.823 1.25 3.7 1.25 3.734 0 .034.032.068.065.068h.01c.022.011.044-.011.044-.045Z" fill="url(#a)"/><path fill-rule="evenodd" clip-rule="evenodd" d="M15.364 5.616c-.25-1.219-.663-2.043-1.238-2.471a1.544 1.544 0 0 0-1.022-.305c.293.023.565.124.815.305.576.417.99 1.252 1.24 2.47.173.858.205 1.603.205 1.637 0 .135-.065.237-.174.27a.117.117 0 0 0 .055.012c.185.022.326-.102.315-.282.01-.034-.022-.768-.196-1.636Z" fill="url(#b)"/><path fill-rule="evenodd" clip-rule="evenodd" d="M12.626 3.618c-2.044.824-1.946 4.784-1.946 4.83 0 .135-.065.236-.174.27a.092.092 0 0 0 .055.012h.043c.163 0 .271-.125.271-.283 0-.045-.097-3.994 1.946-4.817a1.44 1.44 0 0 1 .392-.102c-.175-.034-.37 0-.587.09Z" fill="url(#c)"/><path fill-rule="evenodd" clip-rule="evenodd" d="M15.723 4.6 6.506 7.556s-.39.113-.489.237c-.098.124-.12.474-.12.474L4.475 19.663l10.695 2.076.826-17.15a.632.632 0 0 0-.272.01Z" fill="url(#d)"/><path fill-rule="evenodd" clip-rule="evenodd" d="M18.908 6.067s-.011-.09-.065-.124c-.044-.034-.098-.034-.098-.034l-1.511-.113-1.109-1.14a.335.335 0 0 0-.141-.067l-.826 17.15 5.793-1.298-2.043-14.374Z" fill="url(#e)"/><path fill-rule="evenodd" clip-rule="evenodd" d="M11.919 14.123a4.156 4.156 0 0 0-.554-.61 4.574 4.574 0 0 0-.61-.462 3.91 3.91 0 0 1-.38-.271 2.001 2.001 0 0 1-.26-.26 1.017 1.017 0 0 1-.152-.26.784.784 0 0 1-.044-.27c0-.124.033-.248.076-.35a.944.944 0 0 1 .196-.27.925.925 0 0 1 .304-.181 1.5 1.5 0 0 1 .413-.079c.163-.011.326 0 .478.011.152.012.294.045.435.08.13.033.261.078.37.123.108.046.217.09.293.136l.717-2.212a1.68 1.68 0 0 0-.38-.146 3.03 3.03 0 0 0-.5-.102 4.855 4.855 0 0 0-1.239.011 4.018 4.018 0 0 0-1.315.407 3.36 3.36 0 0 0-.967.744 3.39 3.39 0 0 0-.62 1.016 4.03 4.03 0 0 0-.25 1.24c-.01.272.01.52.076.746.054.225.142.44.26.643.11.203.25.383.403.553.152.169.337.327.521.473.153.113.283.226.392.328.108.101.196.203.26.316.066.101.11.203.142.315a.815.815 0 0 1 .033.328.745.745 0 0 1-.077.316.666.666 0 0 1-.184.248.604.604 0 0 1-.283.135 1.056 1.056 0 0 1-.38.012 1.783 1.783 0 0 1-.478-.136 3.243 3.243 0 0 1-.446-.214 3.925 3.925 0 0 1-.38-.248c-.12-.08-.218-.17-.294-.238l-.49 1.682c.077.113.186.214.305.316.12.101.261.203.424.304.164.09.337.18.522.26.185.079.392.146.598.203h.044c.445.101.869.124 1.271.068a2.566 2.566 0 0 0 1.12-.43c.336-.236.608-.552.815-.97.207-.417.326-.925.348-1.5a2.745 2.745 0 0 0-.131-.97 2.795 2.795 0 0 0-.402-.835Z" fill="url(#f)"/><path opacity=".227" fill-rule="evenodd" clip-rule="evenodd" d="M7.076 17.769a1.159 1.159 0 0 1-.07-.092l.49-1.681.02.019c.074.065.164.146.272.218.11.078.24.169.381.248.14.079.294.158.446.214.152.068.315.113.477.136.142.022.273.01.381-.012a.604.604 0 0 0 .283-.135.666.666 0 0 0 .184-.248.744.744 0 0 0 .077-.316.815.815 0 0 0-.033-.328 1.168 1.168 0 0 0-.142-.315 1.333 1.333 0 0 0-.244-.301c.053.06.098.122.136.188.065.101.108.203.141.316a.815.815 0 0 1 .033.327.755.755 0 0 1-.076.316.674.674 0 0 1-.185.248.61.61 0 0 1-.282.135c-.11.023-.24.034-.38.012a1.78 1.78 0 0 1-.48-.136 3.285 3.285 0 0 1-.445-.214 3.838 3.838 0 0 1-.38-.248 2.31 2.31 0 0 1-.272-.218l-.022-.02-.489 1.682c.049.072.11.139.18.205Zm1.602-3.4a2.86 2.86 0 0 1-.52-.676 2.34 2.34 0 0 1-.26-.642 2.33 2.33 0 0 1-.077-.745 4.09 4.09 0 0 1 .25-1.241c.152-.384.36-.722.62-1.015.272-.305.597-.553.967-.745a4.023 4.023 0 0 1 1.315-.406 4.844 4.844 0 0 1 1.24-.011c.184.022.348.056.5.101.14.034.271.09.38.147l-.017.052a1.544 1.544 0 0 0-.255-.086 3.038 3.038 0 0 0-.5-.102 4.855 4.855 0 0 0-1.239.011 4.016 4.016 0 0 0-1.315.407c-.37.192-.696.44-.968.744a3.391 3.391 0 0 0-.619 1.016 4.03 4.03 0 0 0-.25 1.24c-.011.272.01.52.076.746.054.225.141.44.26.643.11.203.25.383.403.553l.009.01Zm1.476-1.802c.06.067.134.14.221.213.11.09.24.18.38.27a4.574 4.574 0 0 1 .78.627 4.56 4.56 0 0 0-.887-.739 3.746 3.746 0 0 1-.381-.27 2.188 2.188 0 0 1-.113-.101Z" fill="#000"/><path opacity=".41" fill-rule="evenodd" clip-rule="evenodd" d="m17.604 18.546-.37-12.75-.065-.068.174 12.637s-1.532 2.415-1.76 2.347c-.338-.102.662-15.932.662-15.932l-.109-.112a.403.403 0 0 0-.14-.068l-.816 16.913-.011.237.283-.372 2.152-2.832Z" fill="url(#g)"/><path fill-rule="evenodd" clip-rule="evenodd" d="M13.44 5.333a11.25 11.25 0 0 1-.412 1.332c-.076.18.01.35.174.372.174.023.37-.102.434-.282.012-.034.305-.767.49-1.636v-.011l-.685.225Z" fill="url(#h)"/><path fill-rule="evenodd" clip-rule="evenodd" d="M8.539 6.913c-.152.338-.304.632-.414.835-.097.17-.043.35.12.395.163.056.38-.045.478-.215.011-.022.327-.575.61-1.275l-.794.26Z" fill="url(#i)"/><path opacity=".32" fill-rule="evenodd" clip-rule="evenodd" d="m15.169 21.738 2.434-3.193 3.37 1.896-5.804 1.297Z" fill="url(#j)"/><path opacity=".19" fill-rule="evenodd" clip-rule="evenodd" d="m15.169 21.738 2.413-3.193 3.392 1.896-5.805 1.297Z" fill="url(#k)"/><path opacity=".19" fill-rule="evenodd" clip-rule="evenodd" d="m15.169 21.738 2.413-3.193 3.392 1.896-5.805 1.297Z" fill="url(#l)"/><path opacity=".6" fill-rule="evenodd" clip-rule="evenodd" d="M12.8 12.803c1.261 1.771 2.109 3.69 2.532 5.55l.664-13.776a.633.633 0 0 0-.273.012L6.506 7.556s-.086.023-.195.068c2.337.835 4.674 2.629 6.489 5.179Z" fill="url(#m)"/><path fill-rule="evenodd" clip-rule="evenodd" d="M18.854 5.954a.158.158 0 0 1 .055.113L20.93 20.43l-3.326-1.896-.37-12.75 1.49.113c.01.012.076.012.13.057Z" fill="url(#n)"/><path fill-rule="evenodd" clip-rule="evenodd" d="M18.614 5.988s.066 0 .12.056a.205.205 0 0 1 .065.113l1.99 14.205.152.09-2.022-14.374s-.01-.068-.055-.113c-.054-.045-.13-.045-.13-.045l-1.489-.113 1.37.18Z" fill="url(#o)"/><path fill-rule="evenodd" clip-rule="evenodd" d="m4.474 19.663 10.695 2.075.522-11.756-9.887.28-1.33 9.4Z" fill="url(#p)"/><path opacity=".3" fill-rule="evenodd" clip-rule="evenodd" d="M7.984 7.72c-.097.275-.001.563.215.644.216.081.47-.075.568-.35.097-.273 0-.562-.215-.643-.216-.081-.47.075-.568.35Z" fill="#fff"/><path opacity=".89" fill-rule="evenodd" clip-rule="evenodd" d="M7.972 7.59c-.097.274 0 .563.216.644.215.081.47-.075.567-.35.097-.274.002-.562-.215-.643-.216-.081-.47.075-.568.35Z" fill="#000"/><path fill-rule="evenodd" clip-rule="evenodd" d="m17.245 5.796-1.109-1.14a.403.403 0 0 0-.14-.067l-.827 17.15 2.446-3.205-.37-12.738Z" fill="url(#q)"/><path fill-rule="evenodd" clip-rule="evenodd" d="M15.723 4.6 6.506 7.556s-.39.113-.488.237c-.011.012-.012.023-.022.034l9.293-2.663c.076-.022.26-.09.24.463l-.566 16.09.196.033.825-17.15a.489.489 0 0 0-.26 0Z" fill="url(#r)"/><path fill-rule="evenodd" clip-rule="evenodd" d="M15.723 4.6 6.506 7.556s-.39.113-.488.237c-.011.012-.012.023-.022.034l2.152-.62 7.402-2.381a.629.629 0 0 1 .271-.011l-.815 16.901.153.034.825-17.15a.489.489 0 0 0-.26 0Z" fill="url(#s)"/><path opacity=".32" fill-rule="evenodd" clip-rule="evenodd" d="m18.093 18.816-.49-.282-2.445 3.205.13-.034s2.153-2.877 2.348-2.968c.142-.056.457.08.457.08Z" fill="url(#t)"/><path opacity=".57" fill-rule="evenodd" clip-rule="evenodd" d="m15.169 21.739 2.446-3.205c-.011.012-1.554 1.76-2.446 3.205Z" fill="url(#u)"/><path opacity=".46" fill-rule="evenodd" clip-rule="evenodd" d="m20.973 20.441-3.358-1.896c-.012 0 .38.068 3.358 1.896Z" fill="url(#v)"/><path opacity=".3" fill-rule="evenodd" clip-rule="evenodd" d="M12.954 6.595c-.098.275-.001.563.215.644.216.081.47-.075.567-.35.098-.273.002-.562-.214-.643-.216-.081-.47.075-.568.35Z" fill="#fff"/><path opacity=".89" fill-rule="evenodd" clip-rule="evenodd" d="M12.942 6.466c-.097.274 0 .562.215.643.216.082.47-.075.568-.349.097-.274.001-.562-.215-.644-.216-.08-.47.075-.568.35Z" fill="#000"/><path fill-rule="evenodd" clip-rule="evenodd" d="M8.366 8.143h-.044c-.174-.023-.293-.192-.272-.384.022-.18.641-4.4 3.185-5.36.64-.236 1.185-.191 1.598.159.5.417.771 1.252.815 2.47.033.858-.065 1.603-.065 1.637-.022.18-.185.316-.36.282a.321.321 0 0 1-.27-.373c.097-.767.205-2.877-.522-3.486-.229-.192-.544-.214-.968-.056-2.184.823-2.76 4.784-2.76 4.817-.044.17-.174.294-.337.294Z" fill="#595961"/><path opacity=".46" fill-rule="evenodd" clip-rule="evenodd" d="M12.702 2.58c-.38-.316-.88-.36-1.479-.146-1.032.395-1.902 1.433-2.5 3-.445 1.163-.597 2.212-.597 2.257a.21.21 0 0 0 .043.158c.033.046.077.08.131.08h.033a.202.202 0 0 0 .195-.181c.01-.045.587-4.073 2.837-4.92.456-.169.826-.146 1.087.08.771.643.663 2.82.565 3.599-.011.113.065.225.174.237a.208.208 0 0 0 .228-.18c.011-.125.392-3.058-.717-3.984Z" fill="#B2B2C2"/><path opacity=".81" fill-rule="evenodd" clip-rule="evenodd" d="M8.321 7.804H8.3c-.065-.011-.11-.079-.098-.146.011-.046.152-1.072.598-2.234.598-1.546 1.446-2.573 2.456-2.957.576-.214 1.044-.169 1.402.125 1.065.891.696 3.78.674 3.903-.01.068-.065.113-.141.102-.065-.011-.109-.068-.109-.147 0-.033.37-2.865-.587-3.678-.282-.214-.674-.237-1.151-.056-2.294.869-2.892 4.942-2.892 4.987a.132.132 0 0 1-.13.101Z" fill="#B2B2C2"/><path opacity=".42" fill-rule="evenodd" clip-rule="evenodd" d="M9.756 4.577c.12-.169.228-.338.337-.519-.043.057-.359.643-1.01.553-.012 0 .369.124.673-.034Zm-.369.723a6.14 6.14 0 0 0 .271-.554c-.032.068-.25.677-.934.677 0 0 .38.08.663-.124Zm-.283.744c.087-.192.152-.383.218-.575-.033.067-.153.688-.87.767 0-.011.391.034.652-.192Z" fill="#595961"/><path opacity=".62" fill-rule="evenodd" clip-rule="evenodd" d="M13.451 3.844a6.154 6.154 0 0 0-.184-.598c.021.068.239.71-.207 1.173 0 0 .326-.225.391-.575Zm-.423-1.015a7.384 7.384 0 0 0-.457-.407c.055.057.566.474.425 1.106-.011 0 .152-.372.032-.7Zm.532 2.053a6.143 6.143 0 0 0-.075-.62c0 .078.109.744-.414 1.105 0 0 .36-.158.49-.485Zm.055 1.061a5.786 5.786 0 0 0 0-.62c0 .078.011.744-.544 1.048 0-.01.38-.124.544-.428Z" fill="#595961"/><path opacity=".42" fill-rule="evenodd" clip-rule="evenodd" d="M8.854 6.868c.065-.203.11-.406.152-.598-.021.067-.12.71-.782.869.01 0 .402-.012.63-.271Zm1.316-2.911c.152-.136.293-.282.424-.44-.055.045-.49.507-1.098.338.01 0 .347.203.674.102Zm.488-.519c.174-.113.337-.226.5-.35-.065.034-.565.406-1.141.136 0 0 .304.259.64.214Z" fill="#595961"/><path opacity=".62" fill-rule="evenodd" clip-rule="evenodd" d="M11.321 3.066c.196-.057.38-.125.565-.192-.065.022-.652.225-1.13-.203 0 0 .228.338.565.395Zm.554-.204c.153.023.305.034.457.046-.054-.012-.522-.046-.729-.497.012 0 .066.305.272.451Zm.588.248c.098.125.195.249.293.362-.033-.046-.337-.418-.185-.88.011 0-.152.26-.108.519Z" fill="#595961"/><path fill-rule="evenodd" clip-rule="evenodd" d="M13.213 6.439c.01-.124.38-2.979-.652-3.847a1.037 1.037 0 0 0-.696-.249c-.196 0-.413.045-.641.136-1 .372-1.837 1.376-2.424 2.91-.446 1.152-.587 2.178-.598 2.223 0 .034.022.068.054.068h.011c.033 0 .055-.022.055-.056.01-.045.597-4.164 2.934-5.044.5-.192.925-.158 1.229.102.988.823.62 3.7.609 3.735 0 .033.021.067.054.067h.01c.033.012.055-.011.055-.045Z" fill="url(#w)"/><path fill-rule="evenodd" clip-rule="evenodd" d="M13.648 5.029c-.044-1.219-.316-2.043-.816-2.471a1.338 1.338 0 0 0-.967-.305c.283.023.543.124.761.305.5.417.772 1.252.815 2.47.032.858-.065 1.603-.065 1.637a.33.33 0 0 1-.218.27.092.092 0 0 0 .055.012.32.32 0 0 0 .358-.282c.011-.034.11-.768.077-1.636Z" fill="url(#x)"/><path fill-rule="evenodd" clip-rule="evenodd" d="M11.246 3.032C9.06 3.855 8.485 7.816 8.485 7.86a.33.33 0 0 1-.217.27c.021.012.032.012.054.012h.044a.321.321 0 0 0 .315-.282c.01-.045.575-3.994 2.76-4.818.153-.057.283-.09.403-.102-.163-.022-.37.012-.598.09Z" fill="url(#y)"/><defs><linearGradient id="a" x1="10.931" y1="2.956" x2="10.591" y2="7.597" gradientUnits="userSpaceOnUse"><stop stop-color="#fff" stop-opacity=".65"/><stop offset="1" stop-color="#fff" stop-opacity=".01"/></linearGradient><linearGradient id="b" x1="13.422" y1="5.612" x2="15.822" y2="7.714" gradientUnits="userSpaceOnUse"><stop stop-opacity=".01"/><stop offset="1" stop-opacity=".4"/></linearGradient><linearGradient id="c" x1="12.46" y1="8.044" x2="15.001" y2="5.678" gradientUnits="userSpaceOnUse"><stop stop-opacity=".01"/><stop offset="1" stop-opacity=".4"/></linearGradient><linearGradient id="d" x1="9.227" y1="1.139" x2="-.64" y2="12.508" gradientUnits="userSpaceOnUse"><stop stop-color="#B8D26E"/><stop offset="1" stop-color="#7FB525"/></linearGradient><linearGradient id="e" x1="22.724" y1="3.985" x2="17.309" y2="4.086" gradientUnits="userSpaceOnUse"><stop stop-color="#B4E034"/><stop offset="1" stop-color="#60A927"/></linearGradient><linearGradient id="f" x1="6.617" y1="11.566" x2="2.177" y2="22.377" gradientUnits="userSpaceOnUse"><stop stop-color="#fff"/><stop offset="1" stop-color="#CECEEB"/></linearGradient><linearGradient id="g" x1="12.983" y1="38.191" x2="20.014" y2="38.177" gradientUnits="userSpaceOnUse"><stop stop-color="#1D1D1B" stop-opacity=".5"/><stop offset=".038" stop-color="#1D1D1B" stop-opacity=".484"/><stop offset=".424" stop-color="#1D1D1B" stop-opacity=".319"/><stop offset="1" stop-color="#1D1D1B" stop-opacity=".01"/></linearGradient><linearGradient id="h" x1="13.8" y1="4.35" x2="12.633" y2="4.978" gradientUnits="userSpaceOnUse"><stop stop-opacity=".01"/><stop offset="1" stop-opacity=".4"/></linearGradient><linearGradient id="i" x1="8.909" y1="6.213" x2="8.089" y2="6.917" gradientUnits="userSpaceOnUse"><stop stop-opacity=".01"/><stop offset="1" stop-opacity=".4"/></linearGradient><linearGradient id="j" x1="16.908" y1="20.449" x2="16.991" y2="21.544" gradientUnits="userSpaceOnUse"><stop stop-opacity=".01"/><stop offset="1" stop-opacity=".4"/></linearGradient><linearGradient id="k" x1="14.969" y1="18.847" x2="15.162" y2="21.693" gradientUnits="userSpaceOnUse"><stop stop-color="#fff" stop-opacity=".5"/><stop offset=".09" stop-color="#fff" stop-opacity=".455"/><stop offset="1" stop-color="#fff" stop-opacity=".01"/></linearGradient><linearGradient id="l" x1="14.599" y1="19.29" x2="14.942" y2="22.329" gradientUnits="userSpaceOnUse"><stop stop-opacity=".01"/><stop offset="1" stop-opacity=".4"/></linearGradient><linearGradient id="m" x1="13.256" y1="1.803" x2="4.475" y2="6.881" gradientUnits="userSpaceOnUse"><stop stop-color="#fff" stop-opacity=".5"/><stop offset="1" stop-color="#fff" stop-opacity=".01"/></linearGradient><linearGradient id="n" x1="14.95" y1="28.345" x2="22.701" y2="28.361" gradientUnits="userSpaceOnUse"><stop stop-color="#1D1D1B" stop-opacity=".5"/><stop offset=".09" stop-color="#1D1D1B" stop-opacity=".455"/><stop offset="1" stop-color="#1D1D1B" stop-opacity=".01"/></linearGradient><linearGradient id="o" x1="20.5" y1="5.38" x2="19.399" y2="5.65" gradientUnits="userSpaceOnUse"><stop stop-color="#fff" stop-opacity=".4"/><stop offset="1" stop-color="#fff" stop-opacity=".01"/></linearGradient><linearGradient id="p" x1="10.623" y1="21.864" x2="11.195" y2="19.104" gradientUnits="userSpaceOnUse"><stop stop-color="#1D1D1B" stop-opacity=".5"/><stop offset=".09" stop-color="#1D1D1B" stop-opacity=".455"/><stop offset="1" stop-color="#1D1D1B" stop-opacity=".01"/></linearGradient><linearGradient id="q" x1="13.932" y1="37.84" x2="20.989" y2="37.846" gradientUnits="userSpaceOnUse"><stop stop-color="#1D1D1B" stop-opacity=".5"/><stop offset="1" stop-color="#1D1D1B" stop-opacity=".01"/></linearGradient><linearGradient id="r" x1="7.484" y1="3.606" x2="4.062" y2="16.755" gradientUnits="userSpaceOnUse"><stop stop-color="#fff" stop-opacity=".5"/><stop offset="1" stop-color="#fff" stop-opacity=".01"/></linearGradient><linearGradient id="s" x1="7.484" y1="3.606" x2="4.062" y2="16.755" gradientUnits="userSpaceOnUse"><stop stop-color="#fff" stop-opacity=".5"/><stop offset="1" stop-color="#fff" stop-opacity=".01"/></linearGradient><linearGradient id="t" x1="15.79" y1="17.39" x2="13.084" y2="21.113" gradientUnits="userSpaceOnUse"><stop stop-color="#fff" stop-opacity=".5"/><stop offset=".09" stop-color="#fff" stop-opacity=".455"/><stop offset="1" stop-color="#fff" stop-opacity=".01"/></linearGradient><linearGradient id="u" x1="16.606" y1="18.246" x2="16.338" y2="18.846" gradientUnits="userSpaceOnUse"><stop stop-opacity=".01"/><stop offset="1" stop-opacity=".4"/></linearGradient><linearGradient id="v" x1="19.262" y1="19.039" x2="19.249" y2="19.201" gradientUnits="userSpaceOnUse"><stop stop-opacity=".01"/><stop offset="1" stop-opacity=".4"/></linearGradient><linearGradient id="w" x1="9.521" y1="1.964" x2="8.352" y2="6.584" gradientUnits="userSpaceOnUse"><stop stop-color="#fff" stop-opacity=".65"/><stop offset="1" stop-color="#fff" stop-opacity=".01"/></linearGradient><linearGradient id="x" x1="12.138" y1="4.629" x2="14.173" y2="6.697" gradientUnits="userSpaceOnUse"><stop stop-opacity=".01"/><stop offset="1" stop-opacity=".4"/></linearGradient><linearGradient id="y" x1="10.838" y1="7.674" x2="13.649" y2="4.788" gradientUnits="userSpaceOnUse"><stop stop-opacity=".01"/><stop offset="1" stop-opacity=".4"/></linearGradient></defs></svg>