<svg width="25" height="24" fill="none" xmlns="http://www.w3.org/2000/svg"><path d="M12.724 0c-6.628 0-12 5.372-12 12s5.372 12 12 12c6.627 0 12-5.372 12-12s-5.373-12-12-12Zm5.854 17.299a1.047 1.047 0 0 1-1.422.4A12.426 12.426 0 0 0 12.3 16.17a12.493 12.493 0 0 0-5.076.526 1.044 1.044 0 0 1-.635-1.988 14.529 14.529 0 0 1 5.922-.614c2.01.205 3.916.805 5.665 1.785.504.28.684.917.402 1.42Zm1.437-3.645a1.042 1.042 0 0 1-1.408.443 16.31 16.31 0 0 0-5.916-1.765 16.26 16.26 0 0 0-6.191.551 1.043 1.043 0 0 1-.578-2.005 18.384 18.384 0 0 1 6.98-.623 18.4 18.4 0 0 1 6.67 1.992c.51.266.71.896.443 1.407Zm.52-3.033a1.05 1.05 0 0 1-.466-.109 20.164 20.164 0 0 0-6.989-2.017 20.12 20.12 0 0 0-7.265.574 1.044 1.044 0 0 1-.537-2.017 22.241 22.241 0 0 1 8.015-.633A22.217 22.217 0 0 1 21 8.644a1.044 1.044 0 0 1-.465 1.977Z" fill="#1ED760"/></svg>