<svg width="1265" height="1345" fill="none" xmlns="http://www.w3.org/2000/svg"><path fill-rule="evenodd" clip-rule="evenodd" d="M1180.5 90.247c21.14 62.28 32.63 129.072 32.63 198.643 0 125.999-37.74 243.184-102.53 340.87-122.617-147.969-307.79-242.222-514.978-242.222-68.322 0-134.251 10.249-196.332 29.294C495.63 201.239 711.945 51 963.35 51c76.5 0 149.66 13.889 217.15 39.247ZM294.855 672.388a627.478 627.478 0 0 1-.011-3.882C294.844 299.301 594.144 0 963.35 0c91.2 0 178.13 18.261 257.34 51.327 28.07 73.818 43.44 153.895 43.44 237.563 0 142.723-44.73 274.999-120.93 383.578 76.2 108.578 120.93 240.854 120.93 383.572 0 83.67-15.37 163.75-43.44 237.57-79.21 33.06-166.14 51.32-257.341 51.32-369.206 0-668.506-299.3-668.506-668.502 0-1.348.004-2.694.012-4.04Zm815.745 42.788c64.79 97.685 102.53 214.869 102.53 340.864 0 69.57-11.49 136.37-32.63 198.65-67.49 25.36-140.65 39.24-217.151 39.24-251.405 0-467.72-150.24-564.06-365.829 62.082 19.046 128.011 29.295 196.334 29.295 207.187 0 392.36-94.253 514.977-242.22Zm-31.02-42.708C966.462 814.993 791.717 906.396 595.623 906.396c-76.503 0-149.656-13.888-217.148-39.246-20.752-61.119-32.2-126.584-32.619-194.756.435-68.119 11.881-133.534 32.618-194.61 67.492-25.358 140.645-39.246 217.148-39.246 196.095 0 370.84 91.403 483.958 233.93ZM167.415 67.88c67.368 0 123.426 56.059 123.426 123.426 0 67.373-56.053 123.416-123.426 123.416C100.038 314.722 44 258.684 44 191.306 44 123.934 100.043 67.88 167.415 67.88Zm0-44c91.668 0 167.426 75.759 167.426 167.426 0 91.679-75.758 167.416-167.426 167.416C75.737 358.722 0 282.985 0 191.306 0 99.639 75.737 23.88 167.415 23.88Z" fill="url(#a)"/><defs><linearGradient id="a" x1="1107" y1="1227" x2="21.994" y2=".005" gradientUnits="userSpaceOnUse"><stop stop-color="#fff"/><stop offset="1" stop-color="#fff" stop-opacity="0"/></linearGradient></defs></svg>