<svg width="665" height="283" fill="none" xmlns="http://www.w3.org/2000/svg"><path d="M57.128 271.5v-8.4h1.464l3.06 4.968-.84-.012 3.084-4.956h1.392v8.4h-1.524v-3.144c0-.728.016-1.38.048-1.956.04-.584.104-1.16.192-1.728l.192.504-2.604 4.032h-.804l-2.532-3.984.168-.552c.088.536.148 1.088.18 1.656.04.568.06 1.244.06 2.028v3.144h-1.536Zm13.046.12c-.632 0-1.196-.14-1.692-.42a3.19 3.19 0 0 1-1.176-1.176c-.28-.496-.42-1.06-.42-1.692 0-.632.14-1.196.42-1.692a3.1 3.1 0 0 1 1.176-1.164c.496-.288 1.06-.432 1.692-.432.624 0 1.184.144 1.68.432.496.28.884.668 1.164 1.164.288.496.432 1.06.432 1.692 0 .632-.144 1.196-.432 1.692a3.1 3.1 0 0 1-1.164 1.176c-.496.28-1.056.42-1.68.42Zm0-1.308c.344 0 .652-.084.924-.252.272-.176.484-.412.636-.708a2.06 2.06 0 0 0 .228-1.02 2.02 2.02 0 0 0-.228-1.02 1.71 1.71 0 0 0-.636-.708 1.722 1.722 0 0 0-.924-.252 1.723 1.723 0 0 0-1.572.972 2.175 2.175 0 0 0-.228 1.008c0 .376.076.716.228 1.02.152.296.364.532.636.708.28.168.592.252.936.252Zm4.596 1.188v-6.324h1.428l.024 1.296-.276.144c.088-.28.244-.536.468-.768.232-.24.508-.432.828-.576.32-.152.652-.228.996-.228.48 0 .88.096 1.2.288.328.192.572.48.732.864.16.384.24.864.24 1.44v3.864h-1.464v-3.756c0-.328-.044-.596-.132-.804a.877.877 0 0 0-.408-.468 1.195 1.195 0 0 0-.672-.132c-.216 0-.416.036-.6.108-.184.064-.344.16-.48.288-.128.12-.232.264-.312.432-.072.16-.108.336-.108.528v3.804H74.77Zm76.038 0v-6.96h-2.4v-1.44h6.408v1.44h-2.46v6.96h-1.548Zm6.275.12c-.456 0-.852-.104-1.188-.312a2.106 2.106 0 0 1-.768-.876c-.176-.376-.264-.828-.264-1.356v-3.9h1.464v3.588c0 .496.116.888.348 1.176.24.288.572.432.996.432.208 0 .396-.032.564-.096.176-.072.328-.168.456-.288a1.37 1.37 0 0 0 .3-.456c.072-.176.108-.364.108-.564v-3.792h1.464v6.324h-1.428l-.024-1.32.264-.144c-.096.296-.26.564-.492.804-.224.24-.492.432-.804.576a2.465 2.465 0 0 1-.996.204Zm8.186 0c-.664 0-1.252-.136-1.764-.408a3.13 3.13 0 0 1-1.188-1.14c-.28-.488-.42-1.048-.42-1.68 0-.496.08-.948.24-1.356.16-.408.384-.76.672-1.056a2.896 2.896 0 0 1 1.02-.696c.4-.168.832-.252 1.296-.252.424 0 .812.08 1.164.24.36.16.672.38.936.66.264.272.464.6.6.984.144.376.212.788.204 1.236l-.012.528h-5.112l-.288-1.02h4.164l-.18.204v-.276a1.26 1.26 0 0 0-.24-.636 1.357 1.357 0 0 0-.528-.444 1.444 1.444 0 0 0-.696-.168c-.392 0-.724.076-.996.228a1.44 1.44 0 0 0-.624.648c-.136.288-.204.644-.204 1.068 0 .408.084.764.252 1.068.176.304.424.54.744.708.32.168.692.252 1.116.252.296 0 .568-.048.816-.144.256-.096.528-.268.816-.516l.72 1.008c-.216.2-.464.372-.744.516a4.47 4.47 0 0 1-.864.324c-.304.08-.604.12-.9.12Zm77.575-.12-2.628-8.4h1.608l1.512 4.98c.064.2.12.424.168.672.048.248.092.484.132.708.04.224.068.4.084.528h-.324c.104-.384.184-.692.24-.924.056-.232.104-.424.144-.576.04-.152.084-.292.132-.42l1.428-3.636h1.32l1.392 3.636c.088.216.16.428.216.636.064.2.116.396.156.588.048.192.092.392.132.6l-.288.072c.032-.192.056-.348.072-.468.016-.128.032-.236.048-.324l.048-.276a4.38 4.38 0 0 1 .072-.336c.032-.136.08-.308.144-.516l1.476-4.944h1.62l-2.628 8.4h-1.128l-2.148-5.112.156.036-2.04 5.076h-1.116Zm12.644.12c-.664 0-1.252-.136-1.764-.408a3.13 3.13 0 0 1-1.188-1.14c-.28-.488-.42-1.048-.42-1.68 0-.496.08-.948.24-1.356.16-.408.384-.76.672-1.056a2.896 2.896 0 0 1 1.02-.696c.4-.168.832-.252 1.296-.252.424 0 .812.08 1.164.24.36.16.672.38.936.66.264.272.464.6.6.984.144.376.212.788.204 1.236l-.012.528h-5.112l-.288-1.02H257l-.18.204v-.276a1.26 1.26 0 0 0-.24-.636 1.357 1.357 0 0 0-.528-.444 1.444 1.444 0 0 0-.696-.168c-.392 0-.724.076-.996.228a1.44 1.44 0 0 0-.624.648c-.136.288-.204.644-.204 1.068 0 .408.084.764.252 1.068.176.304.424.54.744.708.32.168.692.252 1.116.252.296 0 .568-.048.816-.144.256-.096.528-.268.816-.516l.72 1.008c-.216.2-.464.372-.744.516a4.47 4.47 0 0 1-.864.324c-.304.08-.604.12-.9.12Zm6.623 0c-.568 0-1.076-.14-1.524-.42a3.16 3.16 0 0 1-1.056-1.164c-.256-.496-.384-1.064-.384-1.704 0-.632.128-1.196.384-1.692a2.95 2.95 0 0 1 1.044-1.164 2.736 2.736 0 0 1 1.512-.432c.304 0 .596.048.876.144.288.096.544.228.768.396.232.16.412.34.54.54.136.2.208.408.216.624l-.396.048v-4.176h1.476v8.88h-1.428l-.036-1.476.288.024c-.008.192-.076.38-.204.564-.128.184-.3.352-.516.504a2.78 2.78 0 0 1-.72.372 2.712 2.712 0 0 1-.84.132Zm.276-1.248c.344 0 .648-.084.912-.252a1.74 1.74 0 0 0 .612-.72c.152-.312.228-.668.228-1.068s-.076-.752-.228-1.056a1.74 1.74 0 0 0-.612-.72 1.606 1.606 0 0 0-.912-.264c-.352 0-.66.088-.924.264-.256.176-.46.416-.612.72a2.332 2.332 0 0 0-.228 1.056c0 .4.076.756.228 1.068.152.304.356.544.612.72.264.168.572.252.924.252Zm72.421 1.128v-6.96h-2.4v-1.44h6.408v1.44h-2.46v6.96h-1.548Zm5.275 0v-8.88h1.452v3.852l-.276.144c.088-.28.244-.536.468-.768.232-.24.508-.432.828-.576.32-.152.652-.228.996-.228.48 0 .88.096 1.2.288.328.192.572.48.732.864.16.384.24.864.24 1.44v3.864h-1.464v-3.756c0-.328-.044-.596-.132-.804a.877.877 0 0 0-.408-.468 1.195 1.195 0 0 0-.672-.132c-.216 0-.416.036-.6.108-.184.064-.344.16-.48.288-.128.12-.232.264-.312.432-.072.16-.108.336-.108.528v3.804h-1.464Zm9.508.12c-.456 0-.852-.104-1.188-.312a2.106 2.106 0 0 1-.768-.876c-.176-.376-.264-.828-.264-1.356v-3.9h1.464v3.588c0 .496.116.888.348 1.176.24.288.572.432.996.432.208 0 .396-.032.564-.096.176-.072.328-.168.456-.288a1.37 1.37 0 0 0 .3-.456c.072-.176.108-.364.108-.564v-3.792h1.464v6.324h-1.428l-.024-1.32.264-.144c-.096.296-.26.564-.492.804-.224.24-.492.432-.804.576a2.465 2.465 0 0 1-.996.204Zm75.537-.12v-8.4h1.548v8.4h-1.548Zm.708-3.456v-1.404h4.344v1.404h-4.344Zm0-3.504v-1.44h4.86v1.44h-4.86Zm6.212 6.96v-6.324h1.44l.024 2.016-.192-.456c.088-.32.24-.608.456-.864.216-.256.464-.456.744-.6a1.88 1.88 0 0 1 1.272-.192c.128.024.232.052.312.084l-.384 1.608a1.275 1.275 0 0 0-.336-.108 1.459 1.459 0 0 0-.96.072 1.412 1.412 0 0 0-.468.312 1.657 1.657 0 0 0-.312.48c-.08.176-.12.372-.12.588v3.384h-1.476Zm5.218 0v-6.324h1.464v6.324h-1.464Zm.72-7.668c-.296 0-.528-.072-.696-.216-.16-.152-.24-.364-.24-.636 0-.256.084-.46.252-.612.168-.16.396-.24.684-.24.296 0 .524.076.684.228.168.144.252.352.252.624a.808.808 0 0 1-.252.612c-.168.16-.396.24-.684.24Zm5.172 7.788c-.568 0-1.076-.14-1.524-.42a3.16 3.16 0 0 1-1.056-1.164c-.256-.496-.384-1.064-.384-1.704 0-.632.128-1.196.384-1.692a2.95 2.95 0 0 1 1.044-1.164 2.736 2.736 0 0 1 1.512-.432c.304 0 .596.048.876.144.288.096.544.228.768.396.232.16.412.34.54.54.136.2.208.408.216.624l-.396.048v-4.176h1.476v8.88h-1.428l-.036-1.476.288.024c-.008.192-.076.38-.204.564-.128.184-.3.352-.516.504a2.78 2.78 0 0 1-.72.372 2.712 2.712 0 0 1-.84.132Zm.276-1.248c.344 0 .648-.084.912-.252a1.74 1.74 0 0 0 .612-.72c.152-.312.228-.668.228-1.068s-.076-.752-.228-1.056a1.74 1.74 0 0 0-.612-.72 1.606 1.606 0 0 0-.912-.264c-.352 0-.66.088-.924.264-.256.176-.46.416-.612.72a2.332 2.332 0 0 0-.228 1.056c0 .4.076.756.228 1.068.152.304.356.544.612.72.264.168.572.252.924.252Zm76.358 1.248c-.736 0-1.376-.14-1.92-.42a3.932 3.932 0 0 1-1.38-1.224l1.008-1.152c.392.552.772.932 1.14 1.14.376.2.8.3 1.272.3.272 0 .52-.04.744-.12.224-.08.4-.192.528-.336a.795.795 0 0 0 .192-.528.82.82 0 0 0-.084-.372.788.788 0 0 0-.228-.312 1.529 1.529 0 0 0-.372-.264 2.392 2.392 0 0 0-.516-.204 4.353 4.353 0 0 0-.636-.156 5.585 5.585 0 0 1-1.164-.348 3.046 3.046 0 0 1-.816-.552 2.363 2.363 0 0 1-.492-.744 2.708 2.708 0 0 1-.156-.948c0-.472.132-.888.396-1.248a2.758 2.758 0 0 1 1.08-.864 3.571 3.571 0 0 1 1.5-.312c.704 0 1.3.128 1.788.384.496.256.884.62 1.164 1.092l-1.032 1.008a2.582 2.582 0 0 0-.852-.84 2.077 2.077 0 0 0-1.068-.288c-.288 0-.54.044-.756.132-.208.08-.372.196-.492.348a.797.797 0 0 0-.18.528c0 .152.032.292.096.42.072.128.176.24.312.336.136.096.308.18.516.252.208.072.448.136.72.192.44.096.832.216 1.176.36.352.144.648.32.888.528.248.2.436.432.564.696.128.256.192.544.192.864 0 .544-.128 1.016-.384 1.416-.256.4-.62.708-1.092.924-.472.208-1.024.312-1.656.312Zm8.219-.12v-4.044c0-.344-.116-.612-.348-.804-.224-.2-.516-.3-.876-.3-.336 0-.64.068-.912.204a2.173 2.173 0 0 0-.756.624l-.912-.912c.376-.4.792-.704 1.248-.912a3.514 3.514 0 0 1 1.476-.312c.504 0 .936.08 1.296.24.368.16.652.4.852.72.2.312.3.696.3 1.152v4.344h-1.368Zm-1.8.12c-.408 0-.772-.08-1.092-.24-.32-.16-.576-.38-.768-.66a1.831 1.831 0 0 1-.276-1.008c0-.336.06-.628.18-.876.12-.256.296-.468.528-.636a2.5 2.5 0 0 1 .888-.372c.36-.088.772-.132 1.236-.132h1.812l-.108 1.056h-1.788c-.216 0-.408.02-.576.06-.168.04-.312.1-.432.18a.751.751 0 0 0-.348.672c0 .16.04.3.12.42.08.112.188.2.324.264s.296.096.48.096c.264 0 .512-.044.744-.132.24-.088.452-.212.636-.372s.328-.34.432-.54l.3.816c-.168.28-.376.524-.624.732-.24.208-.504.372-.792.492-.28.12-.572.18-.876.18Zm5.423-.12v-7.932h1.464v7.932h-1.464Zm-1.248-4.956v-1.368h4.092v1.368h-4.092Zm81.406 5.076c-.736 0-1.376-.14-1.92-.42a3.932 3.932 0 0 1-1.38-1.224l1.008-1.152c.392.552.772.932 1.14 1.14.376.2.8.3 1.272.3.272 0 .52-.04.744-.12.224-.08.4-.192.528-.336a.795.795 0 0 0 .192-.528.82.82 0 0 0-.084-.372.788.788 0 0 0-.228-.312 1.529 1.529 0 0 0-.372-.264 2.392 2.392 0 0 0-.516-.204 4.353 4.353 0 0 0-.636-.156 5.585 5.585 0 0 1-1.164-.348 3.046 3.046 0 0 1-.816-.552 2.363 2.363 0 0 1-.492-.744 2.708 2.708 0 0 1-.156-.948c0-.472.132-.888.396-1.248a2.758 2.758 0 0 1 1.08-.864 3.571 3.571 0 0 1 1.5-.312c.704 0 1.3.128 1.788.384.496.256.884.62 1.164 1.092l-1.032 1.008a2.582 2.582 0 0 0-.852-.84 2.077 2.077 0 0 0-1.068-.288c-.288 0-.54.044-.756.132-.208.08-.372.196-.492.348a.797.797 0 0 0-.18.528c0 .152.032.292.096.42.072.128.176.24.312.336.136.096.308.18.516.252.208.072.448.136.72.192.44.096.832.216 1.176.36.352.144.648.32.888.528.248.2.436.432.564.696.128.256.192.544.192.864 0 .544-.128 1.016-.384 1.416-.256.4-.62.708-1.092.924-.472.208-1.024.312-1.656.312Zm6.803 0c-.456 0-.852-.104-1.188-.312a2.106 2.106 0 0 1-.768-.876c-.176-.376-.264-.828-.264-1.356v-3.9h1.464v3.588c0 .496.116.888.348 1.176.24.288.572.432.996.432.208 0 .396-.032.564-.096.176-.072.328-.168.456-.288a1.37 1.37 0 0 0 .3-.456c.072-.176.108-.364.108-.564v-3.792h1.464v6.324h-1.428l-.024-1.32.264-.144c-.096.296-.26.564-.492.804-.224.24-.492.432-.804.576a2.465 2.465 0 0 1-.996.204Zm5.222-.12v-6.324h1.428l.024 1.296-.276.144c.088-.28.244-.536.468-.768.232-.24.508-.432.828-.576.32-.152.652-.228.996-.228.48 0 .88.096 1.2.288.328.192.572.48.732.864.16.384.24.864.24 1.44v3.864h-1.464v-3.756c0-.328-.044-.596-.132-.804a.877.877 0 0 0-.408-.468 1.195 1.195 0 0 0-.672-.132c-.216 0-.416.036-.6.108-.184.064-.344.16-.48.288-.128.12-.232.264-.312.432-.072.16-.108.336-.108.528v3.804h-1.464ZM2.58 15.912V9.108l.456.552-1.704.864-.348-1.356L3.276 7.98h.852v7.932H2.58Zm-1.392.588v-1.44h4.38v1.44h-4.38Zm8.838.12c-.68 0-1.26-.172-1.74-.516-.48-.352-.852-.848-1.116-1.488-.256-.648-.384-1.42-.384-2.316 0-.896.128-1.664.384-2.304.264-.648.636-1.144 1.116-1.488.48-.352 1.06-.528 1.74-.528.68 0 1.26.176 1.74.528.488.344.86.84 1.116 1.488.264.64.396 1.408.396 2.304 0 .896-.132 1.668-.396 2.316-.256.64-.628 1.136-1.116 1.488-.48.344-1.06.516-1.74.516Zm0-1.368c.56 0 .992-.256 1.296-.768.304-.512.456-1.24.456-2.184 0-.952-.152-1.684-.456-2.196-.304-.52-.736-.78-1.296-.78s-.996.26-1.308.78c-.304.512-.456 1.244-.456 2.196 0 .944.152 1.672.456 2.184.312.512.748.768 1.308.768Zm7.547 1.368c-.68 0-1.26-.172-1.74-.516-.48-.352-.852-.848-1.116-1.488-.256-.648-.384-1.42-.384-2.316 0-.896.128-1.664.384-2.304.264-.648.636-1.144 1.116-1.488.48-.352 1.06-.528 1.74-.528.68 0 1.26.176 1.74.528.488.344.86.84 1.116 1.488.264.64.396 1.408.396 2.304 0 .896-.132 1.668-.396 2.316-.256.64-.628 1.136-1.116 1.488-.48.344-1.06.516-1.74.516Zm0-1.368c.56 0 .992-.256 1.296-.768.304-.512.456-1.24.456-2.184 0-.952-.152-1.684-.456-2.196-.304-.52-.736-.78-1.296-.78s-.996.26-1.308.78c-.304.512-.456 1.244-.456 2.196 0 .944.152 1.672.456 2.184.312.512.748.768 1.308.768Z" fill="#7F879E"/><path stroke="#F3F3F3" d="M30 11.5h632"/><path d="M3.504 59.536a3.277 3.277 0 0 1-1.464-.324 2.88 2.88 0 0 1-1.056-.888 2.123 2.123 0 0 1-.396-1.248c0-.264.036-.512.108-.744.072-.232.18-.44.324-.624.144-.192.32-.36.528-.504a3.63 3.63 0 0 1 .744-.396l-.096.336a2.598 2.598 0 0 1-.744-.432c-.2-.176-.356-.38-.468-.612a1.716 1.716 0 0 1-.168-.756c0-.424.12-.808.36-1.152.24-.344.564-.62.972-.828.408-.208.86-.312 1.356-.312.504 0 .956.104 1.356.312.408.208.732.484.972.828.248.344.372.728.372 1.152a1.75 1.75 0 0 1-.636 1.344 2.71 2.71 0 0 1-.768.456l-.06-.288c.336.12.632.292.888.516.256.216.456.472.6.768.144.288.216.6.216.936 0 .464-.132.884-.396 1.26-.264.368-.62.66-1.068.876-.44.216-.932.324-1.476.324Zm0-1.344c.272 0 .516-.052.732-.156a1.25 1.25 0 0 0 .504-.42c.128-.176.192-.38.192-.612 0-.24-.064-.452-.192-.636a1.267 1.267 0 0 0-.504-.456 1.567 1.567 0 0 0-.732-.168 1.54 1.54 0 0 0-.72.168 1.359 1.359 0 0 0-.516.456c-.12.184-.18.396-.18.636 0 .224.06.428.18.612.128.176.3.316.516.42.216.104.456.156.72.156Zm0-3.756c.24 0 .452-.044.636-.132.184-.096.328-.22.432-.372a.866.866 0 0 0 .168-.528c0-.2-.056-.376-.168-.528a1.121 1.121 0 0 0-.432-.384 1.355 1.355 0 0 0-.636-.144c-.232 0-.444.048-.636.144a1.22 1.22 0 0 0-.444.384.912.912 0 0 0-.156.528c0 .2.052.376.156.528.112.152.26.276.444.372.192.088.404.132.636.132Zm7.284 5.184c-.68 0-1.26-.172-1.74-.516-.48-.352-.852-.848-1.116-1.488-.256-.648-.384-1.42-.384-2.316 0-.896.128-1.664.384-2.304.264-.648.636-1.144 1.116-1.488.48-.352 1.06-.528 1.74-.528.68 0 1.26.176 1.74.528.487.344.86.84 1.115 1.488.264.64.396 1.408.396 2.304 0 .896-.131 1.668-.396 2.316-.256.64-.628 1.136-1.116 1.488-.48.344-1.06.516-1.74.516Zm0-1.368c.56 0 .992-.256 1.296-.768.303-.512.456-1.24.456-2.184 0-.952-.152-1.684-.456-2.196-.304-.52-.736-.78-1.296-.78s-.996.26-1.308.78c-.304.512-.456 1.244-.456 2.196 0 .944.152 1.672.456 2.184.312.512.747.768 1.307.768Z" fill="#7F879E"/><path stroke="#F3F3F3" d="M30 54.5h632"/><path d="M3.432 102.5a3.05 3.05 0 0 1-1.176-.228 3.051 3.051 0 0 1-.948-.624 3.051 3.051 0 0 1-.624-.948 3.024 3.024 0 0 1-.228-1.188c0-.32.052-.668.156-1.044.112-.384.272-.792.48-1.224.208-.44.46-.908.756-1.404l1.116-1.884H4.44l.048.12-1.416 2.34a17.81 17.81 0 0 0-.612 1.092c-.176.344-.328.672-.456.984a8.51 8.51 0 0 0-.312.888l-.324-1.116c.176-.344.388-.636.636-.876.256-.248.536-.436.84-.564.312-.128.632-.192.96-.192.464 0 .892.128 1.284.384.392.248.704.58.936.996.24.416.36.872.36 1.368 0 .592-.128 1.124-.384 1.596a2.807 2.807 0 0 1-1.044 1.116c-.44.272-.948.408-1.524.408Zm.012-1.368c.288 0 .544-.068.768-.204a1.41 1.41 0 0 0 .54-.564c.136-.248.204-.532.204-.852 0-.272-.068-.528-.204-.768a1.624 1.624 0 0 0-.54-.576 1.347 1.347 0 0 0-.744-.216c-.304 0-.576.072-.816.216a1.47 1.47 0 0 0-.564.564 1.587 1.587 0 0 0-.192.78c0 .304.064.58.192.828.136.248.32.444.552.588.232.136.5.204.804.204Zm7.097 1.488c-.68 0-1.26-.172-1.74-.516-.48-.352-.852-.848-1.116-1.488-.256-.648-.384-1.42-.384-2.316 0-.896.128-1.664.384-2.304.264-.648.636-1.144 1.116-1.488.48-.352 1.06-.528 1.74-.528.68 0 1.26.176 1.74.528.488.344.86.84 1.116 1.488.264.64.396 1.408.396 2.304 0 .896-.132 1.668-.396 2.316-.256.64-.628 1.136-1.116 1.488-.48.344-1.06.516-1.74.516Zm0-1.368c.56 0 .992-.256 1.296-.768.304-.512.456-1.24.456-2.184 0-.952-.152-1.684-.456-2.196-.304-.52-.736-.78-1.296-.78s-.996.26-1.308.78c-.304.512-.456 1.244-.456 2.196 0 .944.152 1.672.456 2.184.312.512.748.768 1.308.768Z" fill="#7F879E"/><path stroke="#F3F3F3" d="M30 97.5h632"/><path d="M4.2 145.5v-6.768l.564.06-2.832 3.468-.132-.216h5.328v1.356H.96l-.648-1.248 4.164-5.076H5.7v8.424H4.2Zm7.173.12c-.68 0-1.26-.172-1.74-.516-.48-.352-.852-.848-1.116-1.488-.256-.648-.384-1.42-.384-2.316 0-.896.128-1.664.384-2.304.264-.648.636-1.144 1.116-1.488.48-.352 1.06-.528 1.74-.528.68 0 1.26.176 1.74.528.489.344.86.84 1.117 1.488.263.64.396 1.408.396 2.304 0 .896-.133 1.668-.396 2.316-.257.64-.629 1.136-1.117 1.488-.48.344-1.06.516-1.74.516Zm0-1.368c.56 0 .993-.256 1.296-.768.304-.512.457-1.24.457-2.184 0-.952-.152-1.684-.457-2.196-.303-.52-.736-.78-1.296-.78s-.995.26-1.307.78c-.305.512-.457 1.244-.457 2.196 0 .944.152 1.672.457 2.184.311.512.747.768 1.307.768Z" fill="#7F879E"/><path stroke="#F3F3F3" d="M30 140.5h632"/><path d="m.984 188.5-.396-.996 2.52-2.808c.136-.152.28-.32.432-.504.152-.192.296-.388.432-.588.144-.2.26-.396.348-.588.088-.2.132-.384.132-.552a1.1 1.1 0 0 0-.144-.576.907.907 0 0 0-.384-.372 1.334 1.334 0 0 0-.624-.132c-.208 0-.416.064-.624.192-.208.12-.4.296-.576.528a3.046 3.046 0 0 0-.42.804l-1.164-.696a3.34 3.34 0 0 1 .648-1.2 3.023 3.023 0 0 1 1.02-.78c.4-.184.832-.276 1.296-.276.48 0 .908.1 1.284.3.376.2.672.476.888.828.224.352.336.764.336 1.236 0 .224-.032.456-.096.696a3.8 3.8 0 0 1-.3.756 6.463 6.463 0 0 1-.528.84c-.216.288-.48.6-.792.936L2.388 187.6l-.252-.54h4.152v1.44H.984Zm9.358.12c-.68 0-1.26-.172-1.74-.516-.48-.352-.852-.848-1.116-1.488-.256-.648-.384-1.42-.384-2.316 0-.896.128-1.664.384-2.304.264-.648.636-1.144 1.116-1.488.48-.352 1.06-.528 1.74-.528.68 0 1.26.176 1.74.528.488.344.86.84 1.116 1.488.264.64.396 1.408.396 2.304 0 .896-.132 1.668-.396 2.316-.256.64-.628 1.136-1.116 1.488-.48.344-1.06.516-1.74.516Zm0-1.368c.56 0 .992-.256 1.296-.768.304-.512.456-1.24.456-2.184 0-.952-.152-1.684-.456-2.196-.304-.52-.736-.78-1.296-.78s-.996.26-1.308.78c-.304.512-.456 1.244-.456 2.196 0 .944.152 1.672.456 2.184.312.512.748.768 1.308.768Z" fill="#7F879E"/><path stroke="#F3F3F3" d="M30 183.5h632"/><path d="M3.768 231.62c-.68 0-1.26-.172-1.74-.516-.48-.352-.852-.848-1.116-1.488-.256-.648-.384-1.42-.384-2.316 0-.896.128-1.664.384-2.304.264-.648.636-1.144 1.116-1.488.48-.352 1.06-.528 1.74-.528.68 0 1.26.176 1.74.528.488.344.86.84 1.116 1.488.264.64.396 1.408.396 2.304 0 .896-.132 1.668-.396 2.316-.256.64-.628 1.136-1.116 1.488-.48.344-1.06.516-1.74.516Zm0-1.368c.56 0 .992-.256 1.296-.768.304-.512.456-1.24.456-2.184 0-.952-.152-1.684-.456-2.196-.304-.52-.736-.78-1.296-.78s-.996.26-1.308.78c-.304.512-.456 1.244-.456 2.196 0 .944.152 1.672.456 2.184.312.512.748.768 1.308.768Z" fill="#7F879E"/><path stroke="#F3F3F3" d="M30 226.5h632"/><path d="M39 163.5a8 8 0 0 1 8-8h14a8 8 0 0 1 8 8v71H39v-71Z" fill="#1F8FFF"/><path d="M73 113.5a8 8 0 0 1 8-8h14a8 8 0 0 1 8 8v121H73v-121Z" fill="#78C58C"/><path d="M131 207.5a8 8 0 0 1 8-8h14a8 8 0 0 1 8 8v27h-30v-27Z" fill="#1F8FFF"/><path d="M165 50.5a8 8 0 0 1 8-8h14a8 8 0 0 1 8 8v184h-30v-184Z" fill="#78C58C"/><path d="M219 129.5a8 8 0 0 1 8-8h14a8 8 0 0 1 8 8v105h-30v-105Z" fill="#1F8FFF"/><path d="M253 184.5a8 8 0 0 1 8-8h14a8 8 0 0 1 8 8v50h-30v-50Z" fill="#78C58C"/><path d="M308 88.5a8 8 0 0 1 8-8h14a8 8 0 0 1 8 8v146h-30v-146Z" fill="#1F8FFF"/><path d="M342 153.5a8 8 0 0 1 8-8h14a8 8 0 0 1 8 8v81h-30v-81Z" fill="#78C58C"/><path d="M402.5 33.5a8 8 0 0 1 8-8h14a8 8 0 0 1 8 8v201h-30v-201Z" fill="#1F8FFF"/><path d="M436.5 215.5a8 8 0 0 1 8-8h14a8 8 0 0 1 8 8v19h-30v-19Z" fill="#78C58C"/><path d="M484 129.5a8 8 0 0 1 8-8h14a8 8 0 0 1 8 8v105h-30v-105Z" fill="#1F8FFF"/><path d="M518 203.5a8 8 0 0 1 8-8h14a8 8 0 0 1 8 8v31h-30v-31Z" fill="#78C58C"/><path d="M585 50.5a8 8 0 0 1 8-8h14a8 8 0 0 1 8 8v184h-30v-184Z" fill="#1F8FFF"/><path d="M619 84.5a8 8 0 0 1 8-8h14a8 8 0 0 1 8 8v150h-30v-150Z" fill="#78C58C"/><path fill="#1B2124" fill-opacity=".08" d="M298.5 4.5h82v230h-82z"/><path fill-rule="evenodd" clip-rule="evenodd" d="M253 .5a8 8 0 0 0-8 8v50a8 8 0 0 0 8 8h63.226l5.774 10 5.774-10H390a8 8 0 0 0 8-8v-50a8 8 0 0 0-8-8H253Z" fill="#1B2124"/><circle cx="261" cy="20" r="4" fill="#1F8FFF"/><path d="M280.587 24.5v-6.768l.3.072-2.76 3.372-.048-.144h5.22v1.188h-6.024l-.552-1.08 4.116-5.04h.996v8.4h-1.248Zm7.442 0v-6.768l.3.072-2.76 3.372-.048-.144h5.22v1.188h-6.024l-.552-1.08 4.116-5.04h.996v8.4h-1.248Zm6.88 0 3.252-8.4h1.32l3.228 8.4h-1.38l-1.92-5.064a7.16 7.16 0 0 1-.144-.408c-.064-.216-.14-.456-.228-.72a5814482213179.75 5814482213179.75 0 0 0-.384-1.152l.276-.012-.18.516c-.064.208-.136.428-.216.66a21.523 21.523 0 0 1-.396 1.164l-1.908 5.016h-1.32Zm1.44-2.088.48-1.248h3.816l.552 1.248h-4.848Zm7.527 4.728V18.2h1.248v1.44l-.192-.108c.048-.24.184-.468.408-.684.224-.224.496-.404.816-.54a2.484 2.484 0 0 1 1.008-.216c.568 0 1.072.14 1.512.42.44.28.788.664 1.044 1.152.256.488.384 1.048.384 1.68 0 .624-.128 1.184-.384 1.68a2.97 2.97 0 0 1-1.032 1.164c-.44.28-.936.42-1.488.42a2.74 2.74 0 0 1-1.068-.216 2.976 2.976 0 0 1-.876-.576c-.24-.232-.388-.472-.444-.72l.312-.168v4.212h-1.248Zm3.12-3.672c.368 0 .696-.092.984-.276.288-.184.516-.436.684-.756.168-.32.252-.684.252-1.092 0-.408-.084-.768-.252-1.08a1.868 1.868 0 0 0-.672-.756 1.81 1.81 0 0 0-.996-.276 1.867 1.867 0 0 0-1.68 1.02c-.168.32-.252.684-.252 1.092 0 .408.084.772.252 1.092.168.32.396.572.684.756.288.184.62.276.996.276Zm4.45 3.672V18.2h1.248v1.44l-.192-.108c.048-.24.184-.468.408-.684.224-.224.496-.404.816-.54a2.484 2.484 0 0 1 1.008-.216c.568 0 1.072.14 1.512.42.44.28.788.664 1.044 1.152.256.488.384 1.048.384 1.68 0 .624-.128 1.184-.384 1.68a2.97 2.97 0 0 1-1.032 1.164c-.44.28-.936.42-1.488.42a2.74 2.74 0 0 1-1.068-.216 2.976 2.976 0 0 1-.876-.576c-.24-.232-.388-.472-.444-.72l.312-.168v4.212h-1.248Zm3.12-3.672c.368 0 .696-.092.984-.276.288-.184.516-.436.684-.756.168-.32.252-.684.252-1.092 0-.408-.084-.768-.252-1.08a1.868 1.868 0 0 0-.672-.756 1.81 1.81 0 0 0-.996-.276 1.867 1.867 0 0 0-1.68 1.02c-.168.32-.252.684-.252 1.092 0 .408.084.772.252 1.092.168.32.396.572.684.756.288.184.62.276.996.276Zm4.474 1.032v-8.88h1.236v8.88h-1.236Zm3.192 0v-6.3h1.236v6.3h-1.236Zm.6-7.692c-.264 0-.468-.068-.612-.204-.144-.136-.216-.328-.216-.576 0-.232.072-.42.216-.564.152-.144.356-.216.612-.216.264 0 .468.068.612.204.144.136.216.328.216.576 0 .232-.076.42-.228.564-.144.144-.344.216-.6.216Zm5.212 7.812a2.92 2.92 0 0 1-1.572-.432 3.158 3.158 0 0 1-1.092-1.176 3.494 3.494 0 0 1-.396-1.668c0-.616.132-1.172.396-1.668a3.158 3.158 0 0 1 1.092-1.176 2.92 2.92 0 0 1 1.572-.432c.56 0 1.068.116 1.524.348.464.224.816.532 1.056.924l-.684.84a2.25 2.25 0 0 0-.492-.504 2.65 2.65 0 0 0-.636-.36 1.769 1.769 0 0 0-.648-.132c-.384 0-.728.096-1.032.288-.296.184-.532.44-.708.768a2.297 2.297 0 0 0-.264 1.104c0 .408.092.776.276 1.104.184.32.428.576.732.768.304.192.64.288 1.008.288.216 0 .424-.036.624-.108.208-.072.408-.18.6-.324a3.05 3.05 0 0 0 .54-.528l.684.84c-.256.36-.624.656-1.104.888a3.306 3.306 0 0 1-1.476.348Zm7.478-.12v-4.104a1.06 1.06 0 0 0-.384-.852c-.248-.224-.564-.336-.948-.336-.352 0-.672.072-.96.216-.28.144-.536.364-.768.66l-.804-.804c.376-.408.78-.712 1.212-.912.44-.2.912-.3 1.416-.3.48 0 .896.08 1.248.24.352.16.624.396.816.708.192.304.288.676.288 1.116V24.5h-1.116Zm-1.884.12c-.408 0-.772-.08-1.092-.24-.32-.16-.576-.38-.768-.66a1.831 1.831 0 0 1-.276-1.008c0-.336.06-.632.18-.888s.296-.468.528-.636a2.66 2.66 0 0 1 .888-.384c.36-.088.772-.132 1.236-.132h1.752l-.108.984h-1.8c-.24 0-.456.024-.648.072-.184.04-.344.108-.48.204a.855.855 0 0 0-.288.324.907.907 0 0 0-.096.432c0 .176.044.332.132.468a.887.887 0 0 0 .36.3c.152.072.328.108.528.108.288 0 .56-.048.816-.144.264-.104.496-.244.696-.42.208-.176.368-.372.48-.588l.288.804c-.168.28-.376.524-.624.732a3.105 3.105 0 0 1-.804.492c-.288.12-.588.18-.9.18Zm5.342-.12v-7.908h1.236V24.5h-1.236Zm-1.308-5.1v-1.2h4.008v1.2h-4.008Zm5.337 5.1v-6.3h1.236v6.3h-1.236Zm.6-7.692c-.264 0-.468-.068-.612-.204-.144-.136-.216-.328-.216-.576 0-.232.072-.42.216-.564.152-.144.356-.216.612-.216.264 0 .468.068.612.204.144.136.216.328.216.576 0 .232-.076.42-.228.564-.144.144-.344.216-.6.216Zm5.368 7.812c-.616 0-1.168-.14-1.656-.42a3.182 3.182 0 0 1-1.14-1.164c-.28-.496-.42-1.06-.42-1.692 0-.632.14-1.192.42-1.68.28-.496.66-.884 1.14-1.164a3.196 3.196 0 0 1 1.656-.432 3.11 3.11 0 0 1 1.632.432c.488.28.872.668 1.152 1.164.28.488.42 1.048.42 1.68 0 .632-.14 1.196-.42 1.692-.28.488-.664.876-1.152 1.164-.48.28-1.024.42-1.632.42Zm0-1.128a1.87 1.87 0 0 0 1.008-.276c.296-.192.528-.448.696-.768.168-.328.248-.696.24-1.104a2.245 2.245 0 0 0-.24-1.104 1.905 1.905 0 0 0-.696-.768 1.87 1.87 0 0 0-1.008-.276 1.905 1.905 0 0 0-1.716 1.056c-.168.32-.248.684-.24 1.092-.008.408.072.776.24 1.104.168.32.4.576.696.768.304.184.644.276 1.02.276Zm4.551 1.008v-6.3h1.236v1.296l-.216.144c.08-.28.236-.536.468-.768.232-.24.508-.432.828-.576a2.27 2.27 0 0 1 .984-.228c.48 0 .88.096 1.2.288.32.184.56.468.72.852.16.384.24.868.24 1.452v3.84h-1.236v-3.756c0-.36-.048-.656-.144-.888a.952.952 0 0 0-.444-.516c-.2-.112-.448-.16-.744-.144-.24 0-.46.04-.66.12-.2.072-.376.176-.528.312-.144.136-.26.296-.348.48-.08.176-.12.368-.12.576V24.5h-1.236Zm13.404.12c-.688 0-1.296-.136-1.824-.408-.52-.272-.968-.68-1.344-1.224l.888-1.02c.392.56.768.948 1.128 1.164.36.216.788.324 1.284.324.304 0 .58-.048.828-.144a1.44 1.44 0 0 0 .588-.396.86.86 0 0 0 .216-.576c0-.144-.024-.28-.072-.408a.973.973 0 0 0-.228-.348 1.503 1.503 0 0 0-.384-.288 2.61 2.61 0 0 0-.54-.228 4.723 4.723 0 0 0-.72-.18 5.367 5.367 0 0 1-1.128-.348 2.674 2.674 0 0 1-.804-.54 2.077 2.077 0 0 1-.48-.732 2.671 2.671 0 0 1-.156-.936c0-.456.128-.86.384-1.212s.6-.628 1.032-.828a3.41 3.41 0 0 1 1.476-.312c.648 0 1.212.128 1.692.384.488.248.872.612 1.152 1.092l-.912.9a2.67 2.67 0 0 0-.864-.9 2.018 2.018 0 0 0-1.104-.312c-.312 0-.584.048-.816.144a1.315 1.315 0 0 0-.552.408.961.961 0 0 0-.192.6c0 .168.032.324.096.468.064.136.16.26.288.372.136.104.316.2.54.288.224.08.492.152.804.216.44.096.832.22 1.176.372.344.144.636.316.876.516s.42.424.54.672c.128.248.192.516.192.804 0 .536-.124 1-.372 1.392a2.46 2.46 0 0 1-1.056.912c-.456.208-1 .312-1.632.312Zm7.524 0c-.648 0-1.224-.136-1.728-.408a3.155 3.155 0 0 1-1.176-1.14c-.28-.48-.42-1.032-.42-1.656 0-.496.08-.948.24-1.356.16-.408.38-.76.66-1.056a2.896 2.896 0 0 1 1.02-.696c.4-.168.832-.252 1.296-.252.408 0 .788.08 1.14.24.352.152.656.364.912.636.264.272.464.596.6.972.144.368.212.772.204 1.212l-.012.528h-5.148l-.276-.984h4.356l-.18.204v-.288a1.39 1.39 0 0 0-.264-.708 1.631 1.631 0 0 0-1.332-.672c-.432 0-.796.084-1.092.252-.296.16-.52.4-.672.72-.152.312-.228.7-.228 1.164 0 .44.092.824.276 1.152.184.32.444.568.78.744.336.176.724.264 1.164.264.312 0 .6-.052.864-.156.272-.104.564-.292.876-.564l.624.876c-.192.192-.428.36-.708.504-.272.144-.564.26-.876.348-.304.08-.604.12-.9.12Zm4.092-.12v-6.3h1.236v1.296l-.216.144c.08-.28.236-.536.468-.768.232-.24.508-.432.828-.576a2.27 2.27 0 0 1 .984-.228c.48 0 .88.096 1.2.288.32.184.56.468.72.852.16.384.24.868.24 1.452v3.84h-1.236v-3.756c0-.36-.048-.656-.144-.888a.952.952 0 0 0-.444-.516c-.2-.112-.448-.16-.744-.144-.24 0-.46.04-.66.12-.2.072-.376.176-.528.312-.144.136-.26.296-.348.48-.08.176-.12.368-.12.576V24.5h-1.236Zm7.916 0v-7.908h1.236V24.5h-1.236Zm-1.308-5.1v-1.2h4.008v1.2h-4.008Z" fill="#fff"/><circle cx="261" cy="47" r="4" fill="#78C58C"/><path d="M275.604 50.912v-6.816l.444.336-1.656.876-.348-1.128 2.244-1.2h.624v7.932h-1.308Zm-1.332.588v-1.248h4.008V51.5h-4.008Zm6.072 0 3.48-7.584.144.384h-4.248v-1.2h5.196l.168.828-3.348 7.572h-1.392Zm9.387 0v-1.2h1.356v-6h-1.356v-1.2h4.008v1.2h-1.356v6h1.356v1.2h-4.008Zm5.731 0v-6.3h1.236v1.296l-.216.144c.08-.28.236-.536.468-.768.232-.24.508-.432.828-.576a2.27 2.27 0 0 1 .984-.228c.48 0 .88.096 1.2.288.32.184.56.468.72.852.16.384.24.868.24 1.452v3.84h-1.236v-3.756c0-.36-.048-.656-.144-.888a.952.952 0 0 0-.444-.516c-.2-.112-.448-.16-.744-.144-.24 0-.46.04-.66.12-.2.072-.376.176-.528.312-.144.136-.26.296-.348.48-.08.176-.12.368-.12.576V51.5h-1.236Zm7.916 0v-7.908h1.236V51.5h-1.236Zm-1.308-5.1v-1.2h4.008v1.2h-4.008Zm8.015 5.22c-.648 0-1.224-.136-1.728-.408a3.155 3.155 0 0 1-1.176-1.14c-.28-.48-.42-1.032-.42-1.656 0-.496.08-.948.24-1.356.16-.408.38-.76.66-1.056a2.896 2.896 0 0 1 1.02-.696c.4-.168.832-.252 1.296-.252.408 0 .788.08 1.14.24.352.152.656.364.912.636.264.272.464.596.6.972.144.368.212.772.204 1.212l-.012.528h-5.148l-.276-.984h4.356l-.18.204v-.288a1.39 1.39 0 0 0-.264-.708 1.631 1.631 0 0 0-1.332-.672c-.432 0-.796.084-1.092.252-.296.16-.52.4-.672.72-.152.312-.228.7-.228 1.164 0 .44.092.824.276 1.152.184.32.444.568.78.744.336.176.724.264 1.164.264.312 0 .6-.052.864-.156.272-.104.564-.292.876-.564l.624.876c-.192.192-.428.36-.708.504-.272.144-.564.26-.876.348-.304.08-.604.12-.9.12Zm4.092-.12v-6.3h1.248v1.98l-.12-.48a2.25 2.25 0 0 1 .444-.828 2.56 2.56 0 0 1 .731-.588 1.875 1.875 0 0 1 1.249-.18c.128.024.228.052.3.084l-.324 1.344a1.72 1.72 0 0 0-.324-.096 1.218 1.218 0 0 0-.336-.048c-.216 0-.424.044-.624.132-.192.08-.364.196-.516.348-.144.144-.26.316-.348.516a1.508 1.508 0 0 0-.132.636v3.48h-1.248Zm7.501 0-2.664-6.3h1.332l1.92 4.716-.228.108 2.052-4.824h1.272l-2.796 6.3h-.888Zm5.019 0v-6.3h1.236v6.3h-1.236Zm.6-7.692c-.264 0-.468-.068-.612-.204-.144-.136-.216-.328-.216-.576 0-.232.072-.42.216-.564.152-.144.356-.216.612-.216.264 0 .468.068.612.204.144.136.216.328.216.576 0 .232-.076.42-.228.564-.144.144-.344.216-.6.216Zm5.476 7.812c-.648 0-1.224-.136-1.728-.408a3.155 3.155 0 0 1-1.176-1.14c-.28-.48-.42-1.032-.42-1.656 0-.496.08-.948.24-1.356.16-.408.38-.76.66-1.056a2.896 2.896 0 0 1 1.02-.696c.4-.168.832-.252 1.296-.252.408 0 .788.08 1.14.24.352.152.656.364.912.636.264.272.464.596.6.972.144.368.212.772.204 1.212l-.012.528h-5.148l-.276-.984h4.356l-.18.204v-.288a1.39 1.39 0 0 0-.264-.708 1.631 1.631 0 0 0-1.332-.672c-.432 0-.796.084-1.092.252-.296.16-.52.4-.672.72-.152.312-.228.7-.228 1.164 0 .44.092.824.276 1.152.184.32.444.568.78.744.336.176.724.264 1.164.264.312 0 .6-.052.864-.156.272-.104.564-.292.876-.564l.624.876c-.192.192-.428.36-.708.504-.272.144-.564.26-.876.348-.304.08-.604.12-.9.12Zm5.522-.12-2.148-6.3 1.248-.012 1.536 4.716-.276-.024 1.668-3.684h.744l1.68 3.696-.324.024 1.548-4.716h1.248l-2.124 6.3h-.852l-1.752-4.008.276.036-1.632 3.972h-.84Z" fill="#fff"/></svg>