<svg width="316" height="279" fill="none" xmlns="http://www.w3.org/2000/svg"><path d="M57.179 267.5v-8.4h1.464l3.06 4.968-.84-.012 3.084-4.956h1.392v8.4h-1.524v-3.144c0-.728.016-1.38.048-1.956.04-.584.104-1.16.192-1.728l.192.504-2.604 4.032h-.804l-2.532-3.984.168-.552c.088.536.148 1.088.18 1.656.04.568.06 1.244.06 2.028v3.144h-1.536Zm13.046.12c-.632 0-1.197-.14-1.692-.42a3.19 3.19 0 0 1-1.177-1.176c-.28-.496-.42-1.06-.42-1.692 0-.632.14-1.196.42-1.692a3.1 3.1 0 0 1 1.177-1.164c.495-.288 1.06-.432 1.692-.432.624 0 1.184.144 1.68.432.495.28.883.668 1.163 1.164.288.496.433 1.06.433 1.692 0 .632-.145 1.196-.433 1.692a3.1 3.1 0 0 1-1.163 1.176c-.496.28-1.056.42-1.68.42Zm0-1.308c.344 0 .651-.084.924-.252a1.81 1.81 0 0 0 .635-.708 2.06 2.06 0 0 0 .228-1.02 2.02 2.02 0 0 0-.228-1.02 1.71 1.71 0 0 0-.636-.708 1.722 1.722 0 0 0-.923-.252 1.723 1.723 0 0 0-1.572.972 2.175 2.175 0 0 0-.229 1.008c0 .376.076.716.228 1.02.153.296.364.532.636.708.28.168.593.252.937.252Zm4.596 1.188v-6.324h1.428l.024 1.296-.276.144c.088-.28.244-.536.468-.768.232-.24.508-.432.828-.576.32-.152.652-.228.996-.228.48 0 .88.096 1.2.288.328.192.572.48.732.864.16.384.24.864.24 1.44v3.864h-1.464v-3.756c0-.328-.044-.596-.132-.804a.877.877 0 0 0-.408-.468 1.195 1.195 0 0 0-.672-.132c-.216 0-.416.036-.6.108-.184.064-.344.16-.48.288-.128.12-.232.264-.312.432-.072.16-.108.336-.108.528v3.804h-1.464Zm76.038 0v-6.96h-2.4v-1.44h6.408v1.44h-2.46v6.96h-1.548Zm6.275.12c-.456 0-.852-.104-1.188-.312a2.106 2.106 0 0 1-.768-.876c-.176-.376-.264-.828-.264-1.356v-3.9h1.464v3.588c0 .496.116.888.348 1.176.24.288.572.432.996.432.208 0 .396-.032.564-.096.176-.072.328-.168.456-.288a1.37 1.37 0 0 0 .3-.456c.072-.176.108-.364.108-.564v-3.792h1.464v6.324h-1.428l-.024-1.32.264-.144c-.096.296-.26.564-.492.804-.224.24-.492.432-.804.576a2.465 2.465 0 0 1-.996.204Zm8.186 0c-.664 0-1.252-.136-1.764-.408a3.13 3.13 0 0 1-1.188-1.14c-.28-.488-.42-1.048-.42-1.68 0-.496.08-.948.24-1.356.16-.408.384-.76.672-1.056a2.896 2.896 0 0 1 1.02-.696c.4-.168.832-.252 1.296-.252.424 0 .812.08 1.164.24.36.16.672.38.936.66.264.272.464.6.6.984.144.376.212.788.204 1.236l-.012.528h-5.112l-.288-1.02h4.164l-.18.204v-.276a1.26 1.26 0 0 0-.24-.636 1.357 1.357 0 0 0-.528-.444 1.444 1.444 0 0 0-.696-.168c-.392 0-.724.076-.996.228a1.44 1.44 0 0 0-.624.648c-.136.288-.204.644-.204 1.068 0 .408.084.764.252 1.068.176.304.424.54.744.708.32.168.692.252 1.116.252.296 0 .568-.048.816-.144.256-.096.528-.268.816-.516l.72 1.008c-.216.2-.464.372-.744.516a4.47 4.47 0 0 1-.864.324c-.304.08-.604.12-.9.12Zm77.575-.12-2.628-8.4h1.608l1.512 4.98c.064.2.12.424.168.672.048.248.092.484.132.708.04.224.068.4.084.528h-.324c.104-.384.184-.692.24-.924.056-.232.104-.424.144-.576.04-.152.084-.292.132-.42l1.428-3.636h1.32l1.392 3.636c.088.216.16.428.216.636.064.2.116.396.156.588.048.192.092.392.132.6l-.288.072c.032-.192.056-.348.072-.468.016-.128.032-.236.048-.324l.048-.276a4.38 4.38 0 0 1 .072-.336c.032-.136.08-.308.144-.516l1.476-4.944h1.62l-2.628 8.4h-1.128l-2.148-5.112.156.036-2.04 5.076h-1.116Zm12.644.12c-.664 0-1.252-.136-1.764-.408a3.13 3.13 0 0 1-1.188-1.14c-.28-.488-.42-1.048-.42-1.68 0-.496.08-.948.24-1.356.16-.408.384-.76.672-1.056a2.896 2.896 0 0 1 1.02-.696c.4-.168.832-.252 1.296-.252.424 0 .812.08 1.164.24.36.16.672.38.936.66.264.272.464.6.6.984.144.376.212.788.204 1.236l-.012.528h-5.112l-.288-1.02h4.164l-.18.204v-.276a1.26 1.26 0 0 0-.24-.636 1.357 1.357 0 0 0-.528-.444 1.444 1.444 0 0 0-.696-.168c-.392 0-.724.076-.996.228a1.44 1.44 0 0 0-.624.648c-.136.288-.204.644-.204 1.068 0 .408.084.764.252 1.068.176.304.424.54.744.708.32.168.692.252 1.116.252.296 0 .568-.048.816-.144.256-.096.528-.268.816-.516l.72 1.008c-.216.2-.464.372-.744.516a4.47 4.47 0 0 1-.864.324c-.304.08-.604.12-.9.12Zm6.623 0c-.568 0-1.076-.14-1.524-.42a3.16 3.16 0 0 1-1.056-1.164c-.256-.496-.384-1.064-.384-1.704 0-.632.128-1.196.384-1.692a2.95 2.95 0 0 1 1.044-1.164 2.736 2.736 0 0 1 1.512-.432c.304 0 .596.048.876.144.288.096.544.228.768.396.232.16.412.34.54.54.136.2.208.408.216.624l-.396.048v-4.176h1.476v8.88h-1.428l-.036-1.476.288.024c-.008.192-.076.38-.204.564-.128.184-.3.352-.516.504a2.78 2.78 0 0 1-.72.372 2.712 2.712 0 0 1-.84.132Zm.276-1.248c.344 0 .648-.084.912-.252a1.74 1.74 0 0 0 .612-.72c.152-.312.228-.668.228-1.068s-.076-.752-.228-1.056a1.74 1.74 0 0 0-.612-.72 1.606 1.606 0 0 0-.912-.264c-.352 0-.66.088-.924.264-.256.176-.46.416-.612.72a2.332 2.332 0 0 0-.228 1.056c0 .4.076.756.228 1.068.152.304.356.544.612.72.264.168.572.252.924.252ZM2.63 11.912V5.108l.457.552-1.704.864-.348-1.356L3.327 3.98h.852v7.932H2.63Zm-1.39.588v-1.44h4.38v1.44H1.24Zm8.838.12c-.68 0-1.26-.172-1.74-.516-.48-.352-.852-.848-1.116-1.488-.256-.648-.384-1.42-.384-2.316 0-.896.128-1.664.384-2.304.264-.648.636-1.144 1.116-1.488.48-.352 1.06-.528 1.74-.528.68 0 1.26.176 1.74.528.488.344.86.84 1.116 1.488.264.64.396 1.408.396 2.304 0 .896-.132 1.668-.396 2.316-.256.64-.628 1.136-1.116 1.488-.48.344-1.06.516-1.74.516Zm0-1.368c.56 0 .992-.256 1.296-.768.304-.512.456-1.24.456-2.184 0-.952-.152-1.684-.456-2.196-.304-.52-.736-.78-1.296-.78s-.996.26-1.308.78c-.304.512-.456 1.244-.456 2.196 0 .944.152 1.672.456 2.184.312.512.748.768 1.308.768Zm7.546 1.368c-.68 0-1.26-.172-1.74-.516-.48-.352-.851-.848-1.115-1.488-.257-.648-.385-1.42-.385-2.316 0-.896.129-1.664.385-2.304.263-.648.635-1.144 1.115-1.488.48-.352 1.06-.528 1.74-.528.68 0 1.26.176 1.74.528.489.344.86.84 1.117 1.488.264.64.395 1.408.395 2.304 0 .896-.131 1.668-.395 2.316-.256.64-.628 1.136-1.117 1.488-.48.344-1.06.516-1.74.516Zm0-1.368c.56 0 .992-.256 1.296-.768.305-.512.456-1.24.456-2.184 0-.952-.151-1.684-.456-2.196-.303-.52-.736-.78-1.296-.78s-.995.26-1.308.78c-.303.512-.456 1.244-.456 2.196 0 .944.153 1.672.457 2.184.312.512.748.768 1.308.768Z" fill="#7F879E"/><path stroke="#F3F3F3" d="M30.051 7.5h632"/><path d="M3.555 55.536a3.277 3.277 0 0 1-1.464-.324 2.88 2.88 0 0 1-1.056-.888 2.123 2.123 0 0 1-.396-1.248c0-.264.036-.512.108-.744.072-.232.18-.44.324-.624.144-.192.32-.36.528-.504a3.63 3.63 0 0 1 .744-.396l-.096.336a2.598 2.598 0 0 1-.744-.432c-.2-.176-.356-.38-.468-.612a1.716 1.716 0 0 1-.168-.756c0-.424.12-.808.36-1.152.24-.344.564-.62.972-.828.408-.208.86-.312 1.356-.312.504 0 .956.104 1.356.312.408.208.732.484.972.828.248.344.372.728.372 1.152a1.75 1.75 0 0 1-.636 1.344 2.71 2.71 0 0 1-.768.456l-.06-.288c.336.12.632.292.888.516.256.216.456.472.6.768.144.288.216.6.216.936 0 .464-.132.884-.396 1.26-.264.368-.62.66-1.068.876-.44.216-.932.324-1.476.324Zm0-1.344c.272 0 .516-.052.732-.156a1.25 1.25 0 0 0 .504-.42c.128-.176.192-.38.192-.612 0-.24-.064-.452-.192-.636a1.267 1.267 0 0 0-.504-.456 1.567 1.567 0 0 0-.732-.168 1.54 1.54 0 0 0-.72.168 1.359 1.359 0 0 0-.516.456c-.12.184-.18.396-.18.636 0 .224.06.428.18.612.128.176.3.316.516.42.216.104.456.156.72.156Zm0-3.756c.24 0 .452-.044.636-.132.184-.096.328-.22.432-.372a.866.866 0 0 0 .168-.528c0-.2-.056-.376-.168-.528a1.121 1.121 0 0 0-.432-.384 1.355 1.355 0 0 0-.636-.144c-.232 0-.444.048-.636.144a1.22 1.22 0 0 0-.444.384.912.912 0 0 0-.156.528c0 .2.052.376.156.528.112.152.26.276.444.372.192.088.404.132.636.132Zm7.283 5.184c-.68 0-1.26-.172-1.74-.516-.48-.352-.852-.848-1.116-1.488-.256-.648-.384-1.42-.384-2.316 0-.896.128-1.664.384-2.304.264-.648.636-1.144 1.116-1.488.48-.352 1.06-.528 1.74-.528.68 0 1.26.176 1.74.528.488.344.86.84 1.116 1.488.264.64.396 1.408.396 2.304 0 .896-.132 1.668-.396 2.316-.256.64-.628 1.136-1.116 1.488-.48.344-1.06.516-1.74.516Zm0-1.368c.56 0 .992-.256 1.296-.768.304-.512.456-1.24.456-2.184 0-.952-.152-1.684-.456-2.196-.304-.52-.736-.78-1.296-.78s-.996.26-1.308.78c-.304.512-.456 1.244-.456 2.196 0 .944.152 1.672.456 2.184.312.512.748.768 1.308.768Z" fill="#7F879E"/><path stroke="#F3F3F3" d="M30.051 50.5h632"/><path d="M3.483 98.5a3.05 3.05 0 0 1-1.176-.228 3.051 3.051 0 0 1-.948-.624 3.051 3.051 0 0 1-.624-.948 3.024 3.024 0 0 1-.228-1.188c0-.32.052-.668.156-1.044.112-.384.272-.792.48-1.224.208-.44.46-.908.756-1.404l1.116-1.884H4.49l.048.12-1.416 2.34a17.81 17.81 0 0 0-.612 1.092c-.176.344-.328.672-.456.984a8.51 8.51 0 0 0-.312.888l-.324-1.116c.176-.344.388-.636.636-.876.256-.248.536-.436.84-.564.312-.128.632-.192.96-.192.464 0 .892.128 1.284.384.392.248.704.58.936.996.24.416.36.872.36 1.368 0 .592-.128 1.124-.384 1.596a2.807 2.807 0 0 1-1.044 1.116c-.44.272-.948.408-1.524.408Zm.012-1.368c.288 0 .544-.068.768-.204a1.41 1.41 0 0 0 .54-.564c.136-.248.204-.532.204-.852 0-.272-.068-.528-.204-.768a1.624 1.624 0 0 0-.54-.576 1.347 1.347 0 0 0-.744-.216c-.304 0-.576.072-.816.216a1.47 1.47 0 0 0-.564.564 1.587 1.587 0 0 0-.192.78c0 .304.064.58.192.828.136.248.32.444.552.588.232.136.5.204.804.204Zm7.097 1.488c-.68 0-1.26-.172-1.74-.516-.48-.352-.852-.848-1.116-1.488-.256-.648-.384-1.42-.384-2.316 0-.896.128-1.664.384-2.304.264-.648.636-1.144 1.116-1.488.48-.352 1.06-.528 1.74-.528.68 0 1.26.176 1.74.528.488.344.86.84 1.116 1.488.264.64.396 1.408.396 2.304 0 .896-.132 1.668-.396 2.316-.256.64-.628 1.136-1.116 1.488-.48.344-1.06.516-1.74.516Zm0-1.368c.56 0 .992-.256 1.296-.768.304-.512.456-1.24.456-2.184 0-.952-.152-1.684-.456-2.196-.304-.52-.736-.78-1.296-.78s-.996.26-1.308.78c-.304.512-.456 1.244-.456 2.196 0 .944.152 1.672.456 2.184.312.512.748.768 1.308.768Z" fill="#7F879E"/><path stroke="#F3F3F3" d="M30.051 93.5h632"/><path d="M4.25 141.5v-6.768l.565.06-2.832 3.468-.132-.216h5.328v1.356H1.01l-.648-1.248 4.164-5.076H5.75v8.424h-1.5Zm7.174.12c-.68 0-1.26-.172-1.74-.516-.48-.352-.852-.848-1.116-1.488-.256-.648-.384-1.42-.384-2.316 0-.896.128-1.664.384-2.304.264-.648.636-1.144 1.116-1.488.48-.352 1.06-.528 1.74-.528.68 0 1.26.176 1.74.528.488.344.86.84 1.116 1.488.264.64.396 1.408.396 2.304 0 .896-.132 1.668-.396 2.316-.256.64-.628 1.136-1.116 1.488-.48.344-1.06.516-1.74.516Zm0-1.368c.56 0 .992-.256 1.296-.768.304-.512.456-1.24.456-2.184 0-.952-.152-1.684-.456-2.196-.304-.52-.736-.78-1.296-.78s-.996.26-1.308.78c-.304.512-.456 1.244-.456 2.196 0 .944.152 1.672.456 2.184.312.512.748.768 1.308.768Z" fill="#7F879E"/><path stroke="#F3F3F3" d="M30.051 136.5h632"/><path d="m1.035 184.5-.396-.996 2.52-2.808c.136-.152.28-.32.432-.504.152-.192.296-.388.432-.588.144-.2.26-.396.348-.588.088-.2.132-.384.132-.552a1.1 1.1 0 0 0-.144-.576.907.907 0 0 0-.384-.372 1.334 1.334 0 0 0-.624-.132c-.208 0-.416.064-.624.192-.208.12-.4.296-.576.528a3.046 3.046 0 0 0-.42.804l-1.164-.696a3.34 3.34 0 0 1 .648-1.2 3.023 3.023 0 0 1 1.02-.78c.4-.184.832-.276 1.296-.276.48 0 .908.1 1.284.3.376.2.672.476.888.828.224.352.336.764.336 1.236 0 .224-.032.456-.096.696a3.8 3.8 0 0 1-.3.756 6.463 6.463 0 0 1-.528.84c-.216.288-.48.6-.792.936L2.439 183.6l-.252-.54h4.152v1.44H1.035Zm9.358.12c-.68 0-1.26-.172-1.74-.516-.48-.352-.852-.848-1.116-1.488-.256-.648-.384-1.42-.384-2.316 0-.896.128-1.664.384-2.304.264-.648.636-1.144 1.116-1.488.48-.352 1.06-.528 1.74-.528.68 0 1.26.176 1.74.528.488.344.86.84 1.116 1.488.264.64.396 1.408.396 2.304 0 .896-.132 1.668-.396 2.316-.256.64-.628 1.136-1.116 1.488-.48.344-1.06.516-1.74.516Zm0-1.368c.56 0 .992-.256 1.296-.768.304-.512.456-1.24.456-2.184 0-.952-.152-1.684-.456-2.196-.304-.52-.736-.78-1.296-.78s-.996.26-1.308.78c-.304.512-.456 1.244-.456 2.196 0 .944.152 1.672.456 2.184.312.512.748.768 1.308.768Z" fill="#7F879E"/><path stroke="#F3F3F3" d="M30.051 179.5h632"/><path d="M3.819 227.62c-.68 0-1.26-.172-1.74-.516-.48-.352-.852-.848-1.116-1.488-.256-.648-.384-1.42-.384-2.316 0-.896.128-1.664.384-2.304.264-.648.636-1.144 1.116-1.488.48-.352 1.06-.528 1.74-.528.68 0 1.26.176 1.74.528.488.344.86.84 1.116 1.488.264.64.396 1.408.396 2.304 0 .896-.132 1.668-.396 2.316-.256.64-.628 1.136-1.116 1.488-.48.344-1.06.516-1.74.516Zm0-1.368c.56 0 .992-.256 1.296-.768.304-.512.456-1.24.456-2.184 0-.952-.152-1.684-.456-2.196-.304-.52-.736-.78-1.296-.78s-.996.26-1.308.78c-.304.512-.456 1.244-.456 2.196 0 .944.152 1.672.456 2.184.312.512.748.768 1.308.768Z" fill="#7F879E"/><path stroke="#F3F3F3" d="M30.051 222.5h632"/><path d="M39.05 159.5a8 8 0 0 1 8-8h14a8 8 0 0 1 8 8v71h-30v-71Z" fill="#1F8FFF"/><path d="M73.05 109.5a8 8 0 0 1 8-8h14a8 8 0 0 1 8.001 8v121h-30v-121Z" fill="#78C58C"/><path d="M131.051 203.5a8 8 0 0 1 8-8h14a8 8 0 0 1 8 8v27h-30v-27Z" fill="#1F8FFF"/><path d="M165.051 46.5a8 8 0 0 1 8-8h14a8 8 0 0 1 8 8v184h-30v-184Z" fill="#78C58C"/><path d="M219.051 125.5a8 8 0 0 1 8-8h14a8 8 0 0 1 8 8v105h-30v-105Z" fill="#1F8FFF"/><path d="M253.051 180.5a8 8 0 0 1 8-8h14a8 8 0 0 1 8 8v50h-30v-50Z" fill="#78C58C"/><path fill="#1B2124" fill-opacity=".08" d="M298.551.5h82v230h-82z"/></svg>