<svg width="668" height="671" fill="none" xmlns="http://www.w3.org/2000/svg"><path d="M480.633 13.24c0-46.675 38.714-85.388 85.388-85.388 46.679 0 85.381 38.711 85.381 85.388 0 46.68-38.7 85.381-85.381 85.381-46.676 0-85.388-38.702-85.388-85.381Z" fill="url(#a)" stroke="url(#b)" stroke-width="32"/><mask id="e" fill="#fff"><path fill-rule="evenodd" clip-rule="evenodd" d="M-88.855-133.125c47.967-20.024 100.611-31.083 155.839-31.083 223.578 0 404.825 181.247 404.825 404.826 0 50.665-9.308 99.157-26.306 143.859-47.968 20.024-100.612 31.083-155.839 31.083-223.579 0-404.826-181.247-404.826-404.826 0-50.666 9.308-99.157 26.307-143.859Z"/></mask><path fill-rule="evenodd" clip-rule="evenodd" d="M-88.855-133.125c47.967-20.024 100.611-31.083 155.839-31.083 223.578 0 404.825 181.247 404.825 404.826 0 50.665-9.308 99.157-26.306 143.859-47.968 20.024-100.612 31.083-155.839 31.083-223.579 0-404.826-181.247-404.826-404.826 0-50.666 9.308-99.157 26.307-143.859Z" fill="url(#c)"/><path d="m-88.855-133.125-19.647-47.064-20.231 8.446-7.792 20.491 47.67 18.127Zm534.358 517.602 19.647 47.064 20.23-8.446 7.792-20.491-47.669-18.127ZM-69.208-86.061c41.853-17.472 87.828-27.147 136.191-27.147v-102c-62.09 0-121.404 12.443-175.485 35.019l39.293 94.128Zm136.191-27.147c195.413 0 353.826 158.413 353.826 353.826h102c0-251.746-204.08-455.826-455.825-455.826v102ZM420.81 240.618c0 44.375-8.145 86.73-22.976 125.731l95.339 36.255c19.167-50.402 29.637-105.031 29.637-161.986h-102Zm5.047 96.795c-41.854 17.472-87.828 27.147-136.192 27.147v102c62.091 0 121.404-12.443 175.486-35.019l-39.294-94.128ZM289.664 364.56c-195.412 0-353.826-158.413-353.826-353.826h-102c0 251.746 204.08 455.826 455.826 455.826v-102ZM-64.162 10.734c0-44.376 8.145-86.73 22.976-125.732l-95.339-36.254c-19.166 50.401-29.637 105.03-29.637 161.986h102Z" fill="url(#d)" mask="url(#e)"/><g style="mix-blend-mode:darken"><mask id="h" fill="#fff"><path fill-rule="evenodd" clip-rule="evenodd" d="M445.504 121.375c-47.967-20.025-100.611-31.084-155.839-31.084-223.579 0-404.825 181.247-404.825 404.826 0 50.666 9.307 99.158 26.306 143.859C-40.886 659 11.758 670.059 66.985 670.059c223.579 0 404.826-181.246 404.826-404.825 0-50.666-9.308-99.158-26.307-143.859Z"/></mask><path fill-rule="evenodd" clip-rule="evenodd" d="M445.504 121.375c-47.967-20.025-100.611-31.084-155.839-31.084-223.579 0-404.825 181.247-404.825 404.826 0 50.666 9.307 99.158 26.306 143.859C-40.886 659 11.758 670.059 66.985 670.059c223.579 0 404.826-181.246 404.826-404.825 0-50.666-9.308-99.158-26.307-143.859Z" fill="url(#f)"/><path d="m445.504 121.375 19.647-47.064 20.231 8.445 7.792 20.491-47.67 18.128ZM-88.854 638.976-108.5 686.04l-20.23-8.445-7.793-20.491 47.67-18.128Zm514.711-470.538c-41.853-17.472-87.828-27.146-136.192-27.146v-102c62.091 0 121.405 12.442 175.486 35.019l-39.294 94.127Zm-136.192-27.146c-195.412 0-353.825 158.413-353.825 353.825h-102c0-251.745 204.08-455.826 455.825-455.826v102.001ZM-64.16 495.117c0 44.376 8.145 86.731 22.976 125.732l-95.34 36.255c-19.166-50.402-29.636-105.031-29.636-161.987h102Zm-5.047 96.795c41.854 17.472 87.828 27.147 136.192 27.147v102c-62.09 0-121.404-12.443-175.486-35.019l39.294-94.128Zm136.192 27.147c195.412 0 353.826-158.413 353.826-353.825h102c0 251.745-204.081 455.825-455.826 455.825v-102Zm353.826-353.825c0-44.376-8.145-86.731-22.976-125.732l95.339-36.255c19.166 50.402 29.637 105.031 29.637 161.987h-102Z" fill="url(#g)" mask="url(#h)"/></g><defs><linearGradient id="a" x1="629.624" y1="-75.441" x2="464.633" y2="114.621" gradientUnits="userSpaceOnUse"><stop stop-color="#FAEBDF"/><stop offset="1" stop-color="#DBF2D7"/></linearGradient><linearGradient id="b" x1="481.435" y1="114.621" x2="720.307" y2="-126.312" gradientUnits="userSpaceOnUse"><stop stop-color="#DBF2D7"/><stop offset="1" stop-color="#FFD4AE"/></linearGradient><linearGradient id="c" x1="-102.47" y1="-132.947" x2="471.809" y2="382.396" gradientUnits="userSpaceOnUse"><stop stop-color="#DBF2D7"/><stop offset="1" stop-color="#DBF2D7" stop-opacity="0"/></linearGradient><linearGradient id="d" x1="-100.259" y1="-129.629" x2="525.672" y2="323.784" gradientUnits="userSpaceOnUse"><stop stop-color="#97DBB3" stop-opacity=".16"/><stop offset="1" stop-color="#DDF0E7"/></linearGradient><linearGradient id="f" x1="-115.16" y1="623.478" x2="457.11" y2="143.524" gradientUnits="userSpaceOnUse"><stop stop-color="#FDF3D0"/><stop offset="1" stop-color="#DBF2D7"/></linearGradient><linearGradient id="g" x1="-177.12" y1="709.785" x2="444.76" y2="123.564" gradientUnits="userSpaceOnUse"><stop stop-color="#EEEFAD"/><stop offset="1" stop-color="#E0F0E9"/></linearGradient></defs></svg>