<svg width="335" height="612" fill="none" xmlns="http://www.w3.org/2000/svg"><path d="M228.36 130.493c0-40.683 33.623-74.305 74.306-74.305 40.688 0 74.301 33.622 74.301 74.305 0 40.688-33.613 74.301-74.301 74.301-40.683 0-74.306-33.613-74.306-74.301Z" fill="url(#a)"/><path fill-rule="evenodd" clip-rule="evenodd" d="M302.666 79.64c-27.731 0-50.854 23.123-50.854 50.853 0 27.733 23.12 50.849 50.854 50.849 27.735 0 50.848-23.113 50.848-50.849 0-27.733-23.115-50.853-50.848-50.853Zm0-23.452c-40.683 0-74.306 33.622-74.306 74.305 0 40.688 33.623 74.301 74.306 74.301 40.688 0 74.301-33.613 74.301-74.301 0-40.683-33.613-74.305-74.301-74.305Z" fill="url(#b)"/><path fill-rule="evenodd" clip-rule="evenodd" d="M-177.284 23.225C-142.13 8.549-103.547.445-63.072.445c163.858 0 296.691 132.833 296.691 296.691 0 37.132-6.821 72.671-19.279 105.432-35.155 14.676-73.737 22.781-114.213 22.781-163.858 0-296.691-132.834-296.691-296.692 0-37.132 6.821-72.671 19.28-105.432Z" fill="url(#c)"/><path fill-rule="evenodd" clip-rule="evenodd" d="M-147.655 51.919c-7.489 24.213-11.532 49.974-11.532 76.738 0 143.216 116.1 259.314 259.314 259.314 29.669 0 58.112-4.967 84.583-14.096 7.489-24.214 11.532-49.975 11.532-76.739 0-143.215-116.099-259.314-259.314-259.314-29.67 0-58.112 4.968-84.583 14.096ZM214.34 402.567c12.458-32.761 19.279-68.3 19.279-105.432C233.619 133.278 100.786.444-63.072.444c-40.475 0-79.058 8.105-114.212 22.78-12.459 32.762-19.28 68.301-19.28 105.433 0 163.858 132.833 296.692 296.691 296.692 40.476 0 79.058-8.105 114.213-22.781Z" fill="url(#d)"/><path fill-rule="evenodd" clip-rule="evenodd" d="M214.34 209.744c-35.154-14.675-73.737-22.78-114.212-22.78-163.858 0-296.691 132.833-296.691 296.691 0 37.132 6.821 72.672 19.279 105.433 35.155 14.675 73.737 22.78 114.213 22.78 163.858 0 296.691-132.833 296.691-296.691 0-37.133-6.821-72.672-19.28-105.433Z" fill="url(#e)" style="mix-blend-mode:darken"/><path fill-rule="evenodd" clip-rule="evenodd" d="M184.711 238.438c7.489 24.213 11.532 49.974 11.532 76.739 0 143.215-116.1 259.314-259.314 259.314-29.67 0-58.112-4.968-84.583-14.097-7.489-24.214-11.532-49.975-11.532-76.739 0-143.215 116.099-259.314 259.314-259.314 29.669 0 58.112 4.968 84.583 14.097Zm-361.995 350.65c-12.458-32.761-19.279-68.301-19.279-105.433 0-163.858 132.833-296.691 296.691-296.691 40.475 0 79.058 8.105 114.212 22.78 12.459 32.761 19.28 68.3 19.28 105.433 0 163.858-132.833 296.691-296.691 296.691-40.476 0-79.058-8.105-114.213-22.78Z" fill="url(#f)" style="mix-blend-mode:darken"/><defs><linearGradient id="a" x1="349.28" y1="65.501" x2="228.36" y2="204.795" gradientUnits="userSpaceOnUse"><stop stop-color="#FAEBDF"/><stop offset="1" stop-color="#DBF2D7"/></linearGradient><linearGradient id="b" x1="240.674" y1="204.795" x2="415.74" y2="28.218" gradientUnits="userSpaceOnUse"><stop stop-color="#DBF2D7"/><stop offset="1" stop-color="#FFD4AE"/></linearGradient><linearGradient id="c" x1="-187.262" y1="23.355" x2="233.619" y2="401.043" gradientUnits="userSpaceOnUse"><stop stop-color="#DBF2D7"/><stop offset="1" stop-color="#DBF2D7" stop-opacity="0"/></linearGradient><linearGradient id="d" x1="-185.642" y1="25.787" x2="273.095" y2="358.087" gradientUnits="userSpaceOnUse"><stop stop-color="#97DBB3" stop-opacity=".16"/><stop offset="1" stop-color="#DDF0E7"/></linearGradient><linearGradient id="e" x1="-196.563" y1="577.729" x2="222.846" y2="225.977" gradientUnits="userSpaceOnUse"><stop stop-color="#FDF3D0"/><stop offset="1" stop-color="#DBF2D7"/></linearGradient><linearGradient id="f" x1="-241.973" y1="640.982" x2="213.795" y2="211.349" gradientUnits="userSpaceOnUse"><stop stop-color="#EEEFAD"/><stop offset="1" stop-color="#E0F0E9"/></linearGradient></defs></svg>