<svg width="460" height="821" fill="none" xmlns="http://www.w3.org/2000/svg"><g clip-path="url(#a)"><path fill="#DBF2D7" d="M-32.61-46.096h492.04V838.05H-32.61z"/><g style="mix-blend-mode:multiply" opacity=".6"><path d="M169.087 145.211c0-79.518-65.909-145.426-145.426-145.426-79.526 0-145.416 65.906-145.416 145.426 0 79.528 65.888 145.415 145.416 145.415 79.52 0 145.426-65.89 145.426-145.415Z" stroke="url(#b)" stroke-width="44"/><mask id="d" fill="#fff"><path fill-rule="evenodd" clip-rule="evenodd" d="M1076.93 5.23c-79.206-33.064-166.138-51.326-257.335-51.326-369.205 0-668.506 299.301-668.506 668.507 0 83.667 15.37 163.745 43.442 237.563 79.209 33.066 166.141 51.327 257.338 51.327 369.205 0 668.511-299.301 668.511-668.507 0-83.667-15.38-163.745-43.45-237.563Z"/></mask><path d="m1076.93 5.23 19.65-47.063 20.23 8.445 7.79 20.491-47.67 18.128ZM194.531 859.975l-19.647 47.064-20.231-8.445-7.792-20.491 47.67-18.128Zm862.759-807.68c-73.099-30.512-153.361-47.39-237.695-47.39v-102c98.061 0 191.665 19.645 276.985 55.263l-39.29 94.128ZM819.595 4.905c-341.039 0-617.506 276.467-617.506 617.507h-102c0-397.373 322.134-719.507 719.506-719.507v102ZM202.089 622.411c0 77.377 14.208 151.318 40.111 219.436l-95.339 36.255c-30.239-79.519-46.772-165.734-46.772-255.691h102Zm12.088 190.499c73.096 30.514 153.358 47.391 237.692 47.391v102c-98.061 0-191.662-19.645-276.985-55.263l39.293-94.128Zm237.692 47.391c341.039 0 617.511-276.467 617.511-617.507h102c0 397.373-322.139 719.507-719.511 719.507v-102Zm617.511-617.507c0-77.377-14.21-151.318-40.12-219.436l95.34-36.255c30.24 79.519 46.78 165.734 46.78 255.691h-102Z" fill="url(#c)" mask="url(#d)"/><mask id="f" fill="#fff"><path fill-rule="evenodd" clip-rule="evenodd" d="M194.53 392.768c79.209-33.065 166.141-51.326 257.338-51.326 369.206 0 668.502 299.3 668.502 668.508 0 83.67-15.37 163.74-43.44 237.56-79.207 33.07-166.139 51.33-257.335 51.33-369.206 0-668.507-299.302-668.507-668.508 0-83.668 15.371-163.745 43.442-237.564Z"/></mask><path d="m194.53 392.768-19.647-47.064-20.231 8.446-7.792 20.491 47.67 18.127Zm882.4 854.742 19.65 47.07 20.23-8.45 7.79-20.49-47.67-18.13ZM214.176 439.832c73.096-30.513 153.358-47.39 237.692-47.39v-102c-98.06 0-191.662 19.645-276.985 55.262l39.293 94.128Zm237.692-47.39c341.039 0 617.502 276.467 617.502 617.508h102c0-397.374-322.13-719.508-719.502-719.508v102Zm617.502 617.508c0 77.38-14.2 151.32-40.11 219.43l95.34 36.26c30.24-79.52 46.77-165.73 46.77-255.69h-102Zm-12.08 190.5c-73.1 30.51-153.362 47.39-237.695 47.39v102c98.06 0 191.665-19.65 276.985-55.26l-39.29-94.13Zm-237.695 47.39c-341.04 0-617.507-276.469-617.507-617.508h-102c0 397.368 322.134 719.508 719.507 719.508v-102ZM202.088 630.332c0-77.378 14.208-151.318 40.111-219.436l-95.339-36.255c-30.239 79.518-46.772 165.733-46.772 255.691h102Z" fill="url(#e)" mask="url(#f)"/></g></g><defs><linearGradient id="b" x1="-114.456" y1="-22.215" x2="213.544" y2="312.626" gradientUnits="userSpaceOnUse"><stop stop-color="#DBF2D7"/><stop offset="1" stop-color="#B1DFC9"/></linearGradient><linearGradient id="c" x1="1095.77" y1="11.005" x2="62.139" y2="759.742" gradientUnits="userSpaceOnUse"><stop stop-color="#97DBB3" stop-opacity=".16"/><stop offset="1" stop-color="#DDF0E7"/></linearGradient><linearGradient id="e" x1="1222.69" y1="1364.44" x2="195.754" y2="396.392" gradientUnits="userSpaceOnUse"><stop stop-color="#EEEFAD"/><stop offset="1" stop-color="#E0F0E9"/></linearGradient><clipPath id="a"><path fill="#fff" transform="translate(-32.61 -46.096)" d="M0 0h492.039v884.145H0z"/></clipPath></defs></svg>